<svg width="30" height="30" viewBox="0 0 30 30" fill="none" xmlns="http://www.w3.org/2000/svg">
<rect width="30" height="30" rx="15" fill="url(#paint0_linear_53_1995)"/>
<path d="M9.48958 7.74686C9.35405 7.61163 9.17041 7.53569 8.97896 7.53569C8.7875 7.53569 8.60386 7.61163 8.46833 7.74686L7.27147 8.94445C7.13647 9.07995 7.06067 9.26343 7.06067 9.45471C7.06067 9.64599 7.13647 9.82947 7.27147 9.96497L7.93051 10.624C8.48692 9.72676 9.20872 8.94338 10.0575 8.31553L9.48885 7.74686H9.48958ZM21.6844 19.9424C21.0558 20.7905 20.2725 21.5121 19.3759 22.0694L20.0357 22.7285C20.1712 22.8633 20.3545 22.9389 20.5456 22.9389C20.7367 22.9389 20.92 22.8633 21.0555 22.7285L22.2531 21.5309C22.3879 21.3954 22.4635 21.2121 22.4635 21.021C22.4635 20.8299 22.3879 20.6466 22.2531 20.5111L21.6844 19.9424ZM14.4563 12.2668C14.4738 12.3248 14.4797 12.3857 14.4737 12.446C14.4677 12.5063 14.4498 12.5648 14.4212 12.6181C14.3925 12.6715 14.3536 12.7187 14.3067 12.757C14.2597 12.7953 14.2057 12.824 14.1477 12.8414L12.463 13.3454C12.3457 13.3805 12.2192 13.3675 12.1115 13.3094C12.0038 13.2512 11.9235 13.1527 11.8884 13.0354C11.8534 12.9181 11.8663 12.7916 11.9245 12.6839C11.9826 12.5761 12.0812 12.4959 12.1985 12.4608L13.8825 11.9568C14.1264 11.8833 14.3828 12.0229 14.4563 12.2668ZM17.4738 13.8626C17.5336 13.8723 17.5909 13.8936 17.6425 13.9254C17.6941 13.9572 17.7389 13.9989 17.7744 14.048C17.8098 14.0971 17.8353 14.1528 17.8493 14.2117C17.8632 14.2707 17.8655 14.3318 17.8558 14.3916L17.5752 16.1278C17.5557 16.2486 17.489 16.3567 17.3898 16.4284C17.2906 16.5 17.167 16.5293 17.0462 16.5098C16.9253 16.4904 16.8172 16.4237 16.7456 16.3245C16.6739 16.2253 16.6446 16.1017 16.6641 15.9808L16.9448 14.2447C16.9544 14.1849 16.9757 14.1275 17.0076 14.076C17.0394 14.0244 17.081 13.9796 17.1301 13.9441C17.1793 13.9086 17.2349 13.8832 17.2938 13.8692C17.3528 13.8552 17.4139 13.853 17.4738 13.8626ZM14.2858 18.2842C14.3289 18.3268 14.38 18.3606 14.4361 18.3835C14.4922 18.4064 14.5523 18.418 14.6129 18.4177C14.6735 18.4174 14.7335 18.4052 14.7894 18.3817C14.8453 18.3582 14.896 18.324 14.9386 18.2809C14.9813 18.2378 15.015 18.1867 15.0379 18.1306C15.0608 18.0745 15.0725 18.0144 15.0722 17.9538C15.0719 17.8932 15.0596 17.8332 15.0361 17.7773C15.0127 17.7214 14.9784 17.6707 14.9353 17.6281L13.6863 16.3908C13.5989 16.307 13.4821 16.2609 13.361 16.2624C13.24 16.2639 13.1244 16.313 13.0391 16.399C12.9539 16.485 12.9059 16.601 12.9055 16.7221C12.905 16.8432 12.9522 16.9596 13.0368 17.0462L14.2858 18.2842ZM16.4606 12.4968C16.4161 12.5448 16.3624 12.5834 16.3026 12.6102C16.2429 12.637 16.1784 12.6514 16.1129 12.6526C16.0475 12.6539 15.9824 12.6419 15.9217 12.6174C15.861 12.5929 15.8059 12.5564 15.7596 12.5101C15.7133 12.4638 15.6769 12.4086 15.6525 12.3478C15.628 12.2871 15.6161 12.2221 15.6174 12.1566C15.6187 12.0912 15.6332 12.0266 15.6601 11.9669C15.6869 11.9072 15.7255 11.8535 15.7736 11.8091C15.866 11.7238 15.9877 11.6775 16.1134 11.6801C16.2391 11.6826 16.359 11.7337 16.4478 11.8226C16.5367 11.9115 16.5876 12.0314 16.59 12.1571C16.5924 12.2828 16.546 12.4046 16.4606 12.4968ZM17.3951 18.4032C17.3503 18.4499 17.2967 18.4873 17.2373 18.513C17.1779 18.5387 17.1139 18.5523 17.0492 18.553C16.9844 18.5537 16.9202 18.5414 16.8603 18.517C16.8003 18.4925 16.7459 18.4563 16.7001 18.4106C16.6543 18.3648 16.6181 18.3103 16.5937 18.2504C16.5692 18.1904 16.557 18.1262 16.5577 18.0615C16.5584 17.9968 16.572 17.9328 16.5977 17.8734C16.6234 17.814 16.6607 17.7603 16.7075 17.7155C16.7998 17.6302 16.9216 17.5839 17.0473 17.5864C17.173 17.589 17.2928 17.6401 17.3816 17.729C17.4705 17.8179 17.5215 17.9378 17.5238 18.0635C17.5262 18.1892 17.4806 18.311 17.3951 18.4032ZM10.9039 16.3232C10.9483 16.3713 11.002 16.4099 11.0617 16.4368C11.1214 16.4636 11.186 16.4781 11.2514 16.4794C11.3169 16.4807 11.3819 16.4688 11.4426 16.4444C11.5034 16.4199 11.5586 16.3835 11.6049 16.3372C11.6512 16.291 11.6877 16.2358 11.7122 16.1751C11.7367 16.1144 11.7487 16.0494 11.7474 15.9839C11.7462 15.9185 11.7318 15.8539 11.705 15.7942C11.6782 15.7345 11.6396 15.6807 11.5916 15.6363C11.4994 15.5508 11.3776 15.5045 11.2519 15.5068C11.1262 15.5092 11.0063 15.5602 10.9174 15.649C10.8285 15.7379 10.7774 15.8577 10.7749 15.9834C10.7723 16.1091 10.8186 16.2309 10.9039 16.3232Z" fill="white"/>
<path d="M19.451 19.4509C18.8692 20.0477 18.1747 20.523 17.4078 20.8493C16.6409 21.1755 15.8169 21.3463 14.9834 21.3516C14.15 21.3569 13.3239 21.1967 12.5529 20.8802C11.7819 20.5637 11.0814 20.0973 10.4921 19.5079C9.90278 18.9186 9.43635 18.2181 9.11986 17.4472C8.80338 16.6762 8.64314 15.85 8.64844 15.0166C8.65375 14.1832 8.82449 13.3591 9.15076 12.5922C9.47704 11.8253 9.95235 11.1308 10.5491 10.5491C11.7347 9.39333 13.3278 8.75119 14.9834 8.76172C16.6391 8.77226 18.2239 9.43464 19.3947 10.6054C20.5654 11.7761 21.2278 13.361 21.2383 15.0166C21.2489 16.6722 20.6067 18.2654 19.451 19.4509ZM15.6488 20.1349C16.0051 20.193 16.3585 20.2496 16.6789 20.1496C17.0066 20.0431 17.2593 19.7859 17.5106 19.5288C17.6634 19.373 17.8155 19.2173 17.9845 19.096C18.1512 18.977 18.343 18.8808 18.5355 18.7853C18.8588 18.6236 19.1835 18.462 19.3878 18.185C19.5884 17.9132 19.6413 17.5575 19.6949 17.2005C19.7265 16.9845 19.7588 16.7685 19.8235 16.5701C19.8844 16.3827 19.9814 16.1983 20.0791 16.0117C20.2474 15.6906 20.4193 15.3629 20.4193 15C20.4193 14.6451 20.2481 14.316 20.0799 13.9927C19.9794 13.8126 19.8936 13.6246 19.8235 13.4306C19.7588 13.2315 19.7257 13.0148 19.6927 12.7988C19.6383 12.4439 19.5839 12.089 19.3885 11.8143C19.1865 11.5336 18.8595 11.3734 18.5348 11.2118C18.3433 11.1242 18.1593 11.0213 17.9845 10.9039C17.8219 10.7765 17.6696 10.6364 17.5289 10.4852C17.2718 10.2236 17.0124 9.95836 16.6789 9.84962C16.3629 9.74676 16.014 9.80481 15.6576 9.86358C15.4407 9.90533 15.2208 9.92941 15 9.93559C14.787 9.93559 14.5688 9.90032 14.3513 9.86505C13.9949 9.80774 13.6415 9.75044 13.3212 9.85036C12.9935 9.95689 12.7408 10.2148 12.4895 10.4712C12.3367 10.627 12.1846 10.7827 12.0156 10.9047C11.8403 11.0223 11.6561 11.126 11.4646 11.2147C11.1413 11.3764 10.8166 11.538 10.6123 11.815C10.4117 12.0868 10.3588 12.4424 10.3052 12.7995C10.2798 13.0131 10.2368 13.2242 10.1766 13.4306C10.1069 13.6232 10.0213 13.8098 9.92094 13.9883C9.75195 14.3094 9.58076 14.6378 9.58076 15C9.58076 15.3549 9.75195 15.684 9.9202 16.0073C10.0187 16.1961 10.1149 16.382 10.1766 16.5701C10.2413 16.7685 10.2743 16.9852 10.3074 17.2012C10.3618 17.5568 10.4161 17.9109 10.6116 18.1857C10.8136 18.4664 11.1406 18.6273 11.4653 18.7882C11.6578 18.8822 11.8496 18.977 12.0156 19.0968C12.1751 19.2143 12.3227 19.3642 12.4711 19.5156C12.7283 19.7764 12.9877 20.0416 13.3212 20.1504C13.646 20.2532 13.9994 20.1945 14.355 20.1357C14.571 20.1004 14.7884 20.0644 15 20.0644C15.2131 20.0644 15.4313 20.0997 15.6488 20.1349Z" fill="white"/>
<path d="M6.34208 5.61985C7.04166 4.92093 7.9901 4.52834 8.97899 4.52834C9.96787 4.52834 10.9163 4.92093 11.6159 5.61985L11.7628 5.76679C15.1976 4.56626 19.1695 5.33625 21.9166 8.08336C24.6645 10.8305 25.4337 14.8031 24.2325 18.2372L24.3794 18.3841C25.0783 19.0837 25.4709 20.0321 25.4709 21.021C25.4709 22.0099 25.0783 22.9583 24.3794 23.6579L23.1825 24.8555C22.4829 25.5546 21.5343 25.9474 20.5453 25.9474C19.5562 25.9474 18.6076 25.5546 17.908 24.8555L17.5091 24.4558C15.8531 24.8956 14.1107 24.8925 12.4563 24.4469C10.8019 24.0012 9.29364 23.1287 8.08263 21.9166C6.87084 20.7056 5.99851 19.1975 5.553 17.5432C5.10749 15.889 5.10445 14.1467 5.54418 12.4909L5.14449 12.092C4.44535 11.3924 4.05261 10.4438 4.05261 9.45471C4.05261 8.46564 4.44535 7.51705 5.14449 6.81744L6.34208 5.61985ZM10.577 6.65948C10.153 6.23603 9.57823 5.99819 8.97899 5.99819C8.37974 5.99819 7.80499 6.23603 7.38098 6.65948L6.18339 7.85707C5.75994 8.28108 5.5221 8.85583 5.5221 9.45508C5.5221 10.0543 5.75994 10.6291 6.18339 11.0531L7.21419 12.0832C6.65472 13.5776 6.53714 15.2015 6.87547 16.7609C7.21381 18.3204 7.99377 19.7495 9.12226 20.8777C10.2505 22.0062 11.6796 22.7862 13.2391 23.1245C14.7985 23.4629 16.4224 23.3453 17.9168 22.7858L18.9476 23.8166C19.3717 24.2401 19.9464 24.4779 20.5456 24.4779C21.1449 24.4779 21.7196 24.2401 22.1437 23.8166L23.3412 22.619C23.7647 22.195 24.0025 21.6203 24.0025 21.021C24.0025 20.4218 23.7647 19.847 23.3412 19.423L22.5022 18.5847C23.979 15.4945 23.4368 11.6813 20.8777 9.12225C18.3187 6.56323 14.5055 6.02174 11.4153 7.49779L10.5777 6.65948H10.577Z" fill="white"/>
<defs>
<linearGradient id="paint0_linear_53_1995" x1="15" y1="0" x2="15" y2="30" gradientUnits="userSpaceOnUse">
<stop stop-color="#F9A11B"/>
<stop offset="1" stop-color="#F96B1B"/>
</linearGradient>
</defs>
</svg>
