<svg width="30" height="30" viewBox="0 0 30 30" fill="none" xmlns="http://www.w3.org/2000/svg">
<rect width="30" height="30" rx="15" fill="#40A4FF"/>
<path d="M5 11C5 9.9 5.9 9 7 9H10L12 7H18L20 9H23C23.5304 9 24.0391 9.21071 24.4142 9.58579C24.7893 9.96086 25 10.4696 25 11V21C25 21.5304 24.7893 22.0391 24.4142 22.4142C24.0391 22.7893 23.5304 23 23 23H7C6.46957 23 5.96086 22.7893 5.58579 22.4142C5.21071 22.0391 5 21.5304 5 21V11ZM15 21C16.3261 21 17.5979 20.4732 18.5355 19.5355C19.4732 18.5979 20 17.3261 20 16C20 14.6739 19.4732 13.4021 18.5355 12.4645C17.5979 11.5268 16.3261 11 15 11C13.6739 11 12.4021 11.5268 11.4645 12.4645C10.5268 13.4021 10 14.6739 10 16C10 17.3261 10.5268 18.5979 11.4645 19.5355C12.4021 20.4732 13.6739 21 15 21ZM15 19C14.606 19 14.2159 18.9224 13.8519 18.7716C13.488 18.6209 13.1573 18.3999 12.8787 18.1213C12.6001 17.8427 12.3791 17.512 12.2284 17.1481C12.0776 16.7841 12 16.394 12 16C12 15.606 12.0776 15.2159 12.2284 14.8519C12.3791 14.488 12.6001 14.1573 12.8787 13.8787C13.1573 13.6001 13.488 13.3791 13.8519 13.2284C14.2159 13.0776 14.606 13 15 13C15.7956 13 16.5587 13.3161 17.1213 13.8787C17.6839 14.4413 18 15.2044 18 16C18 16.7956 17.6839 17.5587 17.1213 18.1213C16.5587 18.6839 15.7956 19 15 19Z" fill="white"/>
</svg>
