<svg width="353" height="211" viewBox="0 0 353 211" fill="none" xmlns="http://www.w3.org/2000/svg">
<path d="M159.983 209.022C159.766 206.428 160.249 203.823 161.382 201.479C162.515 199.135 164.256 197.138 166.424 195.697C168.592 194.255 171.107 193.422 173.707 193.283C176.306 193.145 178.896 193.707 181.204 194.91C182.321 191.923 183.468 188.883 185.444 186.384C187.419 183.885 190.406 181.968 193.593 182.086V209.022H159.983Z" fill="#EBEBEB"/>
<path d="M71.4303 104.67L54.2489 139.338L59.3821 139.532L44.8174 167.08H52.4672L40.5367 191.553H107.228L92.5395 167.08L99.5778 166.774L85.507 139.238L90.7049 138.933L71.4303 104.67Z" fill="#EBEBEB"/>
<path d="M74.3409 144.883C74.4232 144.883 74.2762 159.583 74.0116 177.67C73.747 195.757 73.4648 210.457 73.3766 210.451C73.2884 210.445 73.4412 195.751 73.7058 177.664C73.9704 159.577 74.2527 144.883 74.3409 144.883Z" fill="#E0E0E0"/>
<path d="M82.5141 152.968C82.1837 153.531 81.8081 154.066 81.391 154.568C80.6677 155.532 79.627 156.831 78.451 158.254L75.4522 161.882C75.0572 162.401 74.627 162.893 74.1645 163.352C74.4901 162.786 74.8639 162.249 75.2817 161.747C76.0108 160.789 77.0457 159.483 78.2217 158.06L81.2205 154.432C81.6141 153.912 82.0466 153.423 82.5141 152.968Z" fill="#E0E0E0"/>
<path d="M74.188 163.352C72.8769 162.519 71.62 161.604 70.4248 160.612C69.1672 159.696 67.971 158.698 66.8439 157.625C68.1574 158.457 69.4164 159.372 70.6129 160.365C71.8709 161.279 73.0653 162.277 74.188 163.352Z" fill="#E0E0E0"/>
<path d="M73.7235 180.351C73.2723 180.06 72.8508 179.725 72.4651 179.352C71.7125 178.711 70.7011 177.829 69.5251 176.876C68.3491 175.924 67.279 175.083 66.5028 174.477C66.0623 174.171 65.6492 173.826 65.268 173.448C65.748 173.687 66.203 173.972 66.6263 174.301C67.4436 174.889 68.5432 175.683 69.7192 176.653C70.8952 177.623 71.9124 178.523 72.6298 179.205C73.0304 179.551 73.3966 179.935 73.7235 180.351Z" fill="#E0E0E0"/>
<path d="M83.2256 169.844C83.1409 170.013 83.0363 170.171 82.9139 170.314C82.7022 170.602 82.3788 171.008 81.9672 171.49C81.1382 172.472 79.9386 173.778 78.5804 175.195C77.2221 176.612 76.0049 177.882 75.1406 178.829C74.6958 179.357 74.2228 179.862 73.7235 180.34C73.8002 180.17 73.9034 180.013 74.0292 179.875C74.2409 179.581 74.5643 179.175 74.9759 178.699C75.805 177.711 77.0045 176.406 78.3628 174.995C79.7211 173.584 80.9382 172.302 81.8026 171.355C82.2481 170.825 82.7232 170.32 83.2256 169.844Z" fill="#E0E0E0"/>
<path d="M211.315 144.119H280.994L294.012 125.632L307.659 144.642L323.694 144.383L306.413 121.104L228.72 121.428L211.315 144.119Z" fill="#E0E0E0"/>
<path d="M246.16 144.383V209.187H315.738V144.383H307.765L294.012 125.632L280.952 144.101L246.16 144.383Z" fill="#F5F5F5"/>
<path d="M272.268 181.092H255.992V209.187H272.268V181.092Z" fill="#E0E0E0"/>
<path d="M307.659 180.299H282.023V196.18H307.659V180.299Z" fill="#E0E0E0"/>
<path d="M289.719 180.299H289.131V196.327H289.719V180.299Z" fill="#EBEBEB"/>
<path d="M300.38 180.299H299.792V196.327H300.38V180.299Z" fill="#EBEBEB"/>
<path d="M300.086 188.501H289.425V189.089H300.086V188.501Z" fill="#EBEBEB"/>
<path d="M307.659 148.517H282.023V164.399H307.659V148.517Z" fill="#E0E0E0"/>
<path d="M289.719 148.517H289.131V164.546H289.719V148.517Z" fill="#EBEBEB"/>
<path d="M300.38 148.517H299.792V164.546H300.38V148.517Z" fill="#EBEBEB"/>
<path d="M300.086 156.72H289.425V157.308H300.086V156.72Z" fill="#EBEBEB"/>
<path d="M270.568 148.658H254.398V163.97H270.568V148.658Z" fill="#E0E0E0"/>
<path d="M246.166 144.383H217.925V209.181H246.166V144.383Z" fill="#E0E0E0"/>
<path d="M262.777 148.658H262.189V163.97H262.777V148.658Z" fill="#EBEBEB"/>
<path d="M270.568 156.396H254.398V156.984H270.568V156.396Z" fill="#EBEBEB"/>
<path d="M293.977 141.432C295.87 141.432 297.405 139.897 297.405 138.004C297.405 136.11 295.87 134.576 293.977 134.576C292.083 134.576 290.549 136.11 290.549 138.004C290.549 139.897 292.083 141.432 293.977 141.432Z" fill="#E0E0E0"/>
<path d="M269.522 133.799L273.843 128.46V115.624H264.788V133.899L269.522 133.799Z" fill="#F5F5F5"/>
<path d="M269.522 133.799V115.624H273.843V128.46L269.522 133.799Z" fill="#EBEBEB"/>
<path d="M274.455 113.737H263.777V115.624H274.455V113.737Z" fill="#EBEBEB"/>
<path d="M246.16 172.731H193.617V209.187H246.16V172.731Z" fill="#F5F5F5"/>
<path d="M226.515 172.731H193.617V209.187H226.515V172.731Z" fill="#E0E0E0"/>
<path d="M221.617 184.485H200.102V209.122H221.617V184.485Z" fill="#F5F5F5"/>
<path d="M243.267 184.385H229.408V187.913H243.267V184.385Z" fill="#EBEBEB"/>
<path d="M211.315 144.119V145.995H280.952V144.101L211.315 144.119Z" fill="#EBEBEB"/>
<path d="M280.952 145.995L293.977 127.714L294.012 125.632L280.993 144.119L280.952 145.995Z" fill="#EBEBEB"/>
<path d="M323.359 144.383H307.765V145.595H323.359V144.383Z" fill="#EBEBEB"/>
<path d="M266.717 176.788H260.96V178.976H266.717V176.788Z" fill="#E0E0E0"/>
<path d="M353 209.187C353 209.269 273.973 209.34 176.506 209.34C79.039 209.34 0 209.269 0 209.187C0 209.105 79.0096 209.022 176.5 209.022C273.99 209.022 353 209.099 353 209.187Z" fill="#263238"/>
<path d="M216.443 38.6317C203.419 20.7153 184.485 12.3657 164.699 12.3657C164.699 12.3657 116.312 12.3657 101.983 55.6837C96.6907 71.6479 97.8667 88.9821 104.276 104.529C106.682 110.439 109.714 116.075 113.319 121.34C125.838 139.391 164.74 188.672 164.74 188.672H173.195C184.05 173.595 211.374 123.515 219.559 107.457C229.82 87.3063 231.396 59.1999 216.443 38.6317ZM172.796 118.758C164.62 118.758 156.628 116.334 149.83 111.792C143.032 107.249 137.734 100.793 134.605 93.2394C131.477 85.6858 130.658 77.3742 132.254 69.3555C133.849 61.3369 137.787 53.9715 143.568 48.1907C149.35 42.4099 156.716 38.4735 164.735 36.8792C172.754 35.2849 181.065 36.1043 188.618 39.2339C196.172 42.3634 202.627 47.6625 207.168 54.461C211.71 61.2595 214.133 69.2521 214.132 77.4279C214.13 88.39 209.775 98.9026 202.023 106.653C194.271 114.404 183.758 118.758 172.796 118.758Z" fill="#FF725E"/>
<path opacity="0.4" d="M216.443 38.6317C203.419 20.7153 184.485 12.3657 164.699 12.3657C164.699 12.3657 116.312 12.3657 101.983 55.6837C96.6907 71.6479 97.8667 88.9821 104.276 104.529C106.682 110.439 109.714 116.075 113.319 121.34C125.838 139.391 164.74 188.672 164.74 188.672H173.195C184.05 173.595 211.374 123.515 219.559 107.457C229.82 87.3063 231.396 59.1999 216.443 38.6317ZM172.796 118.758C164.62 118.758 156.628 116.334 149.83 111.792C143.032 107.249 137.734 100.793 134.605 93.2394C131.477 85.6858 130.658 77.3742 132.254 69.3555C133.849 61.3369 137.787 53.9715 143.568 48.1907C149.35 42.4099 156.716 38.4735 164.735 36.8792C172.754 35.2849 181.065 36.1043 188.618 39.2339C196.172 42.3634 202.627 47.6625 207.168 54.461C211.71 61.2595 214.133 69.2521 214.132 77.4279C214.13 88.39 209.775 98.9026 202.023 106.653C194.271 114.404 183.758 118.758 172.796 118.758Z" fill="black"/>
<path d="M224.951 38.9668C211.927 21.0563 192.993 12.7067 173.207 12.7067C173.207 12.7067 124.821 12.7067 110.491 56.0247C105.199 71.9889 106.375 89.3231 112.79 104.87C115.193 110.78 118.223 116.416 121.828 121.681C134.346 139.727 173.231 189.03 173.231 189.03C173.231 189.03 218.16 127.226 228.05 107.822C238.328 87.6356 239.91 59.5409 224.951 38.9668ZM172.849 119.099C164.673 119.099 156.681 116.675 149.883 112.133C143.085 107.591 137.787 101.135 134.659 93.5818C131.53 86.0286 130.711 77.7172 132.306 69.6987C133.901 61.6802 137.838 54.3148 143.619 48.5338C149.4 42.7528 156.766 38.8159 164.784 37.2209C172.803 35.6259 181.114 36.4445 188.667 39.5732C196.22 42.7019 202.676 48 207.218 54.7978C211.761 61.5955 214.185 69.5875 214.185 77.7631C214.226 83.2028 213.184 88.5963 211.121 93.6298C209.058 98.6634 206.015 103.236 202.168 107.083C198.322 110.93 193.749 113.973 188.715 116.036C183.682 118.099 178.288 119.14 172.849 119.099Z" fill="#FF725E"/>
<path d="M172.796 36.0915C164.253 36.0914 155.921 38.7378 148.944 43.6666C141.967 48.5954 136.689 55.5646 133.835 63.6158C137.024 56.5671 142.434 50.7567 149.237 47.0727C156.04 43.3887 163.863 42.0338 171.508 43.2151C179.154 44.3964 186.203 48.049 191.577 53.6144C196.951 59.1799 200.355 66.352 201.268 74.0345C202.182 81.7171 200.554 89.4873 196.634 96.1576C192.715 102.828 186.719 108.031 179.563 110.972C172.407 113.913 164.485 114.43 157.008 112.443C149.53 110.457 142.909 106.076 138.157 99.9718C142.064 105.973 147.463 110.857 153.826 114.143C160.188 117.43 167.295 119.007 174.451 118.719C181.606 118.432 188.564 116.291 194.643 112.505C200.722 108.719 205.713 103.419 209.126 97.1234C212.54 90.8282 214.259 83.754 214.116 76.5942C213.972 69.4344 211.971 62.4347 208.308 56.2812C204.645 50.1278 199.446 45.0316 193.221 41.4923C186.995 37.9529 179.957 36.0919 172.796 36.0915Z" fill="#FF725E"/>
<path opacity="0.4" d="M172.796 36.0915C164.253 36.0914 155.921 38.7378 148.944 43.6666C141.967 48.5954 136.689 55.5646 133.835 63.6158C137.024 56.5671 142.434 50.7567 149.237 47.0727C156.04 43.3887 163.863 42.0338 171.508 43.2151C179.154 44.3964 186.203 48.049 191.577 53.6144C196.951 59.1799 200.355 66.352 201.268 74.0345C202.182 81.7171 200.554 89.4873 196.634 96.1576C192.715 102.828 186.719 108.031 179.563 110.972C172.407 113.913 164.485 114.43 157.008 112.443C149.53 110.457 142.909 106.076 138.157 99.9718C142.064 105.973 147.463 110.857 153.826 114.143C160.188 117.43 167.295 119.007 174.451 118.719C181.606 118.432 188.564 116.291 194.643 112.505C200.722 108.719 205.713 103.419 209.126 97.1234C212.54 90.8282 214.259 83.754 214.116 76.5942C213.972 69.4344 211.971 62.4347 208.308 56.2812C204.645 50.1278 199.446 45.0316 193.221 41.4923C186.995 37.9529 179.957 36.0919 172.796 36.0915Z" fill="black"/>
<path d="M255.216 96.3792C253.553 95.2367 251.535 94.7296 249.53 94.9503C246.143 95.3384 241.233 95.8382 241.233 95.8382V95.997L217.519 97.4552L210.257 82.7258L199.256 89.9759C199.256 89.9759 200.702 92.2926 206.87 103.682C208.074 105.905 209.932 107.705 212.191 108.839C214.451 109.972 217.004 110.385 219.506 110.021L247.43 105.905V105.852C250.318 105.693 253.44 105.423 253.898 105.005C254.769 104.217 255.557 101.336 255.557 101.336C255.557 101.336 260.531 104.276 261.489 104.358C262.448 104.441 262.624 103.623 263.218 102.777C263.642 102.253 258.514 98.6253 255.216 96.3792Z" fill="#FFBE9D"/>
<path d="M211.739 81.785C211.739 81.785 207.129 72.9121 202.919 64.5331C197.733 54.2489 186.296 52.1851 186.296 52.1851L169.726 50.0095C169.726 50.0095 155.861 43.7473 142.984 59.2999L132.4 71.1245L134.652 73.1531L145.148 82.5611L147.223 84.431L151.975 79.5388L149.77 91.928L145.871 109.203L154.297 108.186L159.995 73.3472L192.123 75.905L189.559 97.8903C190.077 97.8139 193.964 97.0495 195.228 91.7692C195.634 90.0843 195.634 88.3268 195.228 86.6419L197.086 91.3988L211.739 81.785Z" fill="#455A64"/>
<path d="M159.954 73.3648L154.256 108.204L145.83 109.221C151.458 114.077 158.293 117.323 165.613 118.617C172.934 119.911 180.467 119.204 187.419 116.571L189.559 97.8903L192.082 75.9226L159.954 73.3648Z" fill="#263238"/>
<path d="M161.859 48.2807L161.165 76.5812L166.504 77.4279L167.221 48.7453C167.221 48.7453 165.357 47.8633 161.859 48.2807Z" fill="#263238"/>
<path d="M184.532 76.7223L188.948 52.4144C189.201 52.1439 192.823 53.4434 193.917 54.6782L189.953 77.228L184.532 76.7223Z" fill="#263238"/>
<path d="M166.716 73.2648C166.772 73.4191 166.8 73.5826 166.798 73.747C166.838 74.193 166.838 74.6417 166.798 75.0876C166.757 75.7719 166.527 76.4313 166.134 76.9928C165.891 77.3281 165.57 77.5987 165.199 77.7807C164.788 77.966 164.33 78.0214 163.887 77.9394C163.472 77.8517 163.08 77.6795 162.734 77.4338C162.388 77.188 162.096 76.8738 161.876 76.5106C161.536 75.923 161.335 75.2653 161.288 74.5878C161.249 74.1418 161.249 73.6932 161.288 73.2472C161.285 73.0803 161.315 72.9145 161.377 72.7592C161.43 72.7592 161.377 73.4648 161.5 74.5643C161.582 75.1886 161.792 75.7891 162.118 76.3283C162.321 76.6529 162.588 76.9332 162.902 77.1524C163.216 77.3717 163.571 77.5253 163.946 77.6043C164.318 77.6699 164.7 77.6285 165.049 77.4848C165.398 77.3411 165.699 77.1011 165.916 76.7928C166.291 76.2738 166.524 75.6657 166.592 75.0288C166.722 73.9704 166.657 73.2648 166.716 73.2648Z" fill="#455A64"/>
<path d="M163.564 75.7638C163.262 75.6437 163.021 75.4087 162.892 75.1104C162.764 74.8121 162.759 74.475 162.879 74.1733C162.999 73.8715 163.234 73.6298 163.532 73.5014C163.831 73.3729 164.168 73.3682 164.47 73.4883C164.619 73.5477 164.755 73.636 164.87 73.7481C164.986 73.8602 165.078 73.994 165.141 74.1417C165.205 74.2894 165.239 74.4481 165.241 74.6089C165.243 74.7697 165.214 74.9294 165.155 75.0788C165.095 75.2282 165.007 75.3645 164.895 75.4798C164.783 75.595 164.649 75.6871 164.501 75.7507C164.353 75.8143 164.195 75.8482 164.034 75.8505C163.873 75.8527 163.713 75.8233 163.564 75.7638Z" fill="#455A64"/>
<path d="M188.683 75.9168C188.685 76.1601 188.613 76.3982 188.479 76.6011C188.345 76.804 188.153 76.9624 187.929 77.0563C187.704 77.1502 187.457 77.1754 187.218 77.1287C186.98 77.0819 186.76 76.9653 186.588 76.7937C186.415 76.6221 186.297 76.4031 186.25 76.1646C186.202 75.926 186.226 75.6786 186.318 75.4537C186.411 75.2288 186.569 75.0365 186.771 74.9013C186.973 74.766 187.211 74.6937 187.454 74.6937C187.779 74.6937 188.091 74.8224 188.321 75.0516C188.552 75.2808 188.682 75.5919 188.683 75.9168Z" fill="#455A64"/>
<path d="M190.324 75.07C190.314 75.5586 190.221 76.0419 190.048 76.4988C189.882 77.0185 189.603 77.4946 189.23 77.8924C188.992 78.139 188.701 78.3285 188.379 78.4467C188.058 78.5648 187.713 78.6085 187.372 78.5745C186.691 78.5008 186.062 78.1758 185.608 77.6631C185.255 77.2444 185.019 76.739 184.926 76.199C184.858 75.8444 184.846 75.4812 184.891 75.1229C184.898 74.9894 184.934 74.859 184.997 74.7407C185.005 75.2162 185.052 75.6901 185.138 76.1578C185.252 76.6467 185.487 77.0994 185.82 77.4749C186.234 77.9214 186.796 78.2033 187.402 78.2687C187.701 78.3 188.003 78.2634 188.286 78.1616C188.569 78.0597 188.825 77.8954 189.036 77.6807C189.392 77.3227 189.668 76.894 189.848 76.4224C190.153 75.6051 190.271 75.0524 190.324 75.07Z" fill="#455A64"/>
<path d="M163.464 86.7183C163.423 86.7183 163.405 86.4831 163.417 86.1303C163.417 85.948 163.417 85.7246 163.446 85.4835C163.446 85.3542 163.446 85.2248 163.476 85.1013V84.9014V84.7956V84.6956L163.646 84.5427C164.337 84.5662 165.021 84.691 165.675 84.9132C164.987 84.9901 164.292 84.9664 163.611 84.8426C163.576 84.8779 163.934 84.5545 163.782 84.6956V84.7838V84.8896V85.0954C163.782 85.2248 163.752 85.3483 163.735 85.4835C163.735 85.7305 163.67 85.948 163.64 86.1362C163.564 86.4714 163.505 86.7183 163.464 86.7183Z" fill="#455A64"/>
<path d="M162.606 94.7974C162.528 94.1178 162.55 93.4304 162.67 92.7571C162.692 92.0724 162.815 91.3947 163.035 90.7461C163.12 91.4252 163.1 92.1133 162.976 92.7865C162.949 93.471 162.824 94.1482 162.606 94.7974Z" fill="#455A64"/>
<path d="M163.799 101.812C163.127 101.647 162.483 101.383 161.888 101.03C161.888 101.065 161.729 100.742 161.8 100.877V100.789V100.683V100.477L161.853 100.095C161.888 99.8542 161.923 99.6308 161.953 99.4485C162.023 99.0839 162.082 98.8605 162.123 98.8605C162.165 98.8605 162.182 99.1016 162.17 99.4485C162.17 99.6366 162.159 99.8542 162.135 100.101C162.135 100.236 162.135 100.36 162.1 100.489V100.689V100.795V100.889C162.176 101.024 162 100.701 162.018 100.736C162.661 101.006 163.261 101.368 163.799 101.812Z" fill="#455A64"/>
<path d="M169.232 104.511C168.243 104.255 167.315 103.803 166.504 103.182C167.01 103.266 167.494 103.45 167.927 103.723C168.41 103.897 168.854 104.165 169.232 104.511Z" fill="#455A64"/>
<path d="M175.7 105.999C175.131 106.394 174.507 106.703 173.848 106.916H173.701H173.654L173.56 106.869L173.378 106.775L173.037 106.599L172.449 106.275C172.131 106.087 171.943 105.952 171.961 105.911C171.978 105.869 172.202 105.911 172.549 106.081C172.719 106.152 172.925 106.24 173.137 106.346L173.484 106.51L173.672 106.599L173.766 106.64H173.813H173.713C174.34 106.329 175.01 106.113 175.7 105.999Z" fill="#455A64"/>
<path d="M180.093 104.217C180.122 104.3 179.658 104.558 179.052 104.805C178.446 105.052 177.929 105.187 177.876 105.111C177.823 105.035 178.311 104.77 178.917 104.523C179.522 104.276 180.057 104.141 180.093 104.217Z" fill="#455A64"/>
<path d="M184.409 100.507C184.486 101.194 184.466 101.889 184.35 102.571L184.25 102.7H184.203L184.103 102.741L183.915 102.818L183.556 102.953C183.321 103.035 183.115 103.112 182.933 103.165C182.58 103.282 182.345 103.335 182.345 103.294C182.345 103.253 182.533 103.135 182.862 102.965L183.45 102.688L183.809 102.535L183.997 102.459L184.091 102.418H184.144L184.05 102.547C184.066 101.853 184.187 101.165 184.409 100.507Z" fill="#455A64"/>
<path d="M185.191 92.8865C185.268 94.1696 185.135 95.4567 184.797 96.6967C184.715 96.0591 184.731 95.4127 184.844 94.7798C184.86 94.1345 184.977 93.4957 185.191 92.8865Z" fill="#455A64"/>
<path d="M183.75 86.8124C184.438 86.7354 185.133 86.7592 185.814 86.883L185.949 87.0476V87.1417V87.2475V87.4474C185.949 87.5768 185.92 87.7003 185.902 87.8296C185.867 88.0766 185.837 88.2942 185.802 88.4823C185.738 88.8469 185.673 89.0703 185.632 89.0703C185.591 89.0703 185.579 88.8292 185.585 88.4823C185.585 88.2942 185.585 88.0707 185.62 87.8238L185.649 87.4416V87.2358V87.0417L185.785 87.2064C185.091 87.1759 184.405 87.0431 183.75 86.8124Z" fill="#455A64"/>
<path d="M176.535 86.0362C177.752 85.9606 178.973 86.0918 180.146 86.4243C179.54 86.51 178.924 86.4961 178.323 86.3831C177.712 86.3632 177.109 86.2461 176.535 86.0362Z" fill="#455A64"/>
<path d="M169.321 85.2542C169.926 85.1686 170.542 85.1825 171.143 85.2954C171.746 85.3178 172.341 85.4349 172.907 85.6423C171.691 85.718 170.47 85.5867 169.297 85.2542H169.321Z" fill="#455A64"/>
<path d="M131.518 75.2935C131.477 75.9991 131.459 76.7106 131.459 77.4279C131.457 80.2207 131.739 83.0064 132.3 85.7422V85.8246C132.371 86.1656 132.453 86.5008 132.535 86.8359C132.853 88.1648 133.235 89.4761 133.658 90.7697C133.711 90.9284 133.764 91.0931 133.823 91.2518C135.34 90.9108 139.738 87.1005 144.801 82.3436L134.311 72.9356C132.859 74.3703 131.994 75.1289 131.518 75.2935Z" fill="#FFBE9D"/>
<path d="M197.739 14.2238C198.103 18.2868 202.731 21.709 206.811 21.5855C209.058 21.515 211.333 20.5154 213.491 21.1386C217.113 22.1912 218.577 27.2421 222.311 27.9183C225.086 28.424 227.644 26.1543 230.461 26.0249C232.531 25.9132 234.483 26.9481 236.2 28.1123C237.917 29.2766 239.551 30.6231 241.492 31.2875C243.432 31.952 245.255 30.776 247.236 30.1703C247.724 31.4286 248.048 32.981 248.677 34.2863C249.306 35.5917 250.071 38.0084 248.953 38.5258C248.953 38.5258 245.831 40.1428 244.026 40.0546C244.755 40.7898 245.665 41.3194 246.665 41.5899C247.664 41.8605 248.717 41.8623 249.718 41.5952C250.218 44.6175 250.594 48.1043 248.542 50.3799C247.583 51.3664 246.357 52.051 245.014 52.3497C238.463 54.0431 231.613 49.4626 224.963 50.7092C222.235 51.2266 219.736 52.6966 216.978 53.0612C215.618 53.2297 214.238 53.1246 212.919 52.752C211.6 52.3794 210.369 51.7468 209.299 50.8915C206.676 48.7688 204.871 45.2172 201.543 44.6586C200.067 44.4176 198.574 44.8409 197.127 45.2466C195.681 45.6524 194.187 46.0404 192.711 45.7288C191.235 45.4172 189.871 44.1706 189.936 42.6771" fill="#263238"/>
<path d="M184.732 53.6845C185.467 49.5685 186.314 45.2937 186.314 45.2937C186.314 45.2937 191.747 45.3466 194.058 38.6493C196.257 32.2636 197.844 16.8933 197.844 16.8933C194.359 14.7239 190.294 13.6737 186.194 13.8839C182.094 14.0941 178.157 15.5548 174.912 18.0693L169.497 51.4383C168.868 55.3132 171.696 58.9353 175.847 59.5762C180.028 60.2583 184.009 57.5888 184.732 53.6845Z" fill="#FFBE9D"/>
<path d="M193.781 28.4063C193.744 28.6367 193.617 28.8431 193.429 28.9816C193.242 29.12 193.007 29.1795 192.776 29.1472C192.661 29.137 192.55 29.1039 192.448 29.0498C192.347 28.9957 192.257 28.9218 192.185 28.8324C192.112 28.743 192.059 28.6399 192.027 28.5294C191.995 28.4188 191.986 28.303 192 28.1888C192.039 27.958 192.166 27.7515 192.355 27.6132C192.544 27.4748 192.779 27.4156 193.011 27.4479C193.125 27.4588 193.236 27.4925 193.337 27.5469C193.438 27.6013 193.526 27.6754 193.598 27.7647C193.67 27.854 193.723 27.9568 193.755 28.067C193.786 28.1772 193.795 28.2926 193.781 28.4063Z" fill="#263238"/>
<path d="M195.387 27.6713C195.257 27.7654 194.675 27.1539 193.723 26.9893C192.77 26.8246 191.994 27.1715 191.911 27.0422C191.829 26.9128 192.017 26.7893 192.358 26.6247C192.821 26.4098 193.339 26.344 193.84 26.4365C194.332 26.5261 194.784 26.7665 195.134 27.1245C195.387 27.4009 195.451 27.6243 195.387 27.6713Z" fill="#263238"/>
<path d="M184.02 26.8599C183.981 27.0907 183.854 27.2972 183.665 27.4355C183.476 27.5738 183.241 27.6331 183.009 27.6008C182.895 27.5898 182.784 27.5562 182.683 27.5018C182.583 27.4474 182.494 27.3733 182.422 27.284C182.35 27.1947 182.297 27.0919 182.265 26.9817C182.234 26.8715 182.225 26.7561 182.239 26.6423C182.278 26.4115 182.405 26.2051 182.594 26.0667C182.783 25.9284 183.018 25.8691 183.25 25.9015C183.364 25.9124 183.475 25.9461 183.576 26.0005C183.677 26.0549 183.766 26.1289 183.837 26.2182C183.909 26.3076 183.962 26.4104 183.994 26.5206C184.025 26.6308 184.034 26.7461 184.02 26.8599Z" fill="#263238"/>
<path d="M185.408 26.266C185.279 26.3601 184.697 25.7486 183.744 25.584C182.792 25.4193 182.015 25.7721 181.927 25.6369C181.839 25.5016 182.033 25.3899 182.38 25.2194C182.842 25.0095 183.357 24.9459 183.856 25.0371C184.351 25.1217 184.807 25.3628 185.155 25.7251C185.408 26.0014 185.473 26.2249 185.408 26.266Z" fill="#263238"/>
<path d="M187.613 33.9277C188.142 33.8601 188.678 33.8601 189.207 33.9277C189.454 33.9277 189.695 33.9277 189.765 33.7807C189.828 33.5338 189.816 33.2737 189.73 33.0339C189.607 32.4047 189.477 31.7462 189.336 31.0582C188.801 28.2535 188.466 25.9603 188.578 25.9367C188.689 25.9132 189.213 28.177 189.754 30.9877C189.877 31.6756 190 32.3342 190.112 32.9633C190.216 33.2832 190.201 33.6295 190.071 33.9394C190.021 34.0186 189.954 34.0855 189.874 34.1354C189.795 34.1852 189.705 34.2167 189.612 34.2275C189.472 34.2433 189.33 34.2433 189.189 34.2275C188.653 34.193 188.124 34.0923 187.613 33.9277Z" fill="#263238"/>
<path d="M186.29 45.2937C183.035 44.7632 179.992 43.3381 177.5 41.1777C177.5 41.1777 178.905 46.3051 185.914 46.8695L186.29 45.2937Z" fill="#EB996E"/>
<path d="M186.808 36.1503C186.665 35.8925 186.46 35.6746 186.211 35.5164C185.963 35.3583 185.679 35.2649 185.385 35.2448C185.173 35.2284 184.96 35.2542 184.758 35.3208C184.556 35.3875 184.369 35.4935 184.209 35.6329C184.054 35.7695 183.944 35.9507 183.896 36.1517C183.848 36.3526 183.862 36.5636 183.938 36.7559C184.061 36.9502 184.237 37.1044 184.446 37.1994C184.655 37.2945 184.887 37.3264 185.114 37.291C185.59 37.2079 186.045 37.0343 186.455 36.7795C186.576 36.7217 186.686 36.642 186.778 36.5443C186.822 36.4982 186.852 36.4399 186.862 36.3769C186.873 36.314 186.864 36.2494 186.837 36.1915" fill="#EB996E"/>
<path d="M184.732 34.0923C184.891 34.0923 184.732 35.1389 185.461 36.0268C186.19 36.9147 187.337 36.997 187.319 37.144C187.302 37.291 187.037 37.2969 186.572 37.2322C185.967 37.1342 185.415 36.8261 185.014 36.362C184.627 35.9156 184.43 35.3348 184.467 34.745C184.473 34.3098 184.632 34.0688 184.732 34.0923Z" fill="#263238"/>
<path d="M179.575 13.1418C181.416 17.2049 187.378 22.1441 191.988 23.8964C191.565 23.0614 188.977 20.7035 188.56 19.8686C190.418 21.8854 193.105 24.6255 195.945 25.3134C196.272 25.4218 196.624 25.432 196.957 25.3428C197.14 25.2491 197.3 25.1145 197.423 24.9493C197.546 24.7842 197.63 24.5929 197.668 24.3903C198.219 22.3423 198.546 20.2407 198.644 18.1222C198.741 16.3356 198.152 14.5794 196.998 13.2124C195.428 11.4484 192.882 10.6017 190.4 10.0725C188.358 9.54548 186.232 9.4256 184.144 9.71967C182.104 10.1078 180.199 11.2838 179.587 13.0184" fill="#263238"/>
<path d="M168.586 28.4357C168.552 26.8656 168.61 25.2949 168.762 23.7317C169.226 20.1449 170.35 7.10897 182.38 10.4606L181.098 13.8063C181.098 13.8063 182.021 22.1971 175.847 26.7011C175.847 26.7011 175.877 35.0801 171.596 38.1025C171.596 38.1025 168.615 32.4224 168.586 28.4593" fill="#263238"/>
<path d="M176.106 26.1131C175.395 25.8248 174.618 25.7373 173.86 25.8603C173.103 25.9915 172.428 26.4136 171.978 27.0363C171.57 27.6918 171.425 28.4774 171.573 29.2354C171.725 29.9876 172.042 30.6966 172.502 31.311C172.799 31.773 173.202 32.1579 173.678 32.4341C173.92 32.5643 174.191 32.6325 174.466 32.6325C174.741 32.6325 175.011 32.5643 175.253 32.4341" fill="#FFBE9D"/>
<path d="M174.912 30.5055C174.989 30.5466 174.589 30.9347 173.948 30.6348C173.78 30.5431 173.631 30.419 173.511 30.2697C173.391 30.1203 173.302 29.9486 173.248 29.7646C173.112 29.3498 173.06 28.912 173.095 28.4769C173.12 28.0115 173.312 27.5708 173.636 27.2362C173.771 27.0925 173.938 26.9818 174.122 26.9125C174.307 26.8431 174.505 26.8171 174.701 26.8364C175.4 26.9422 175.53 27.4596 175.447 27.4596C175.365 27.4596 175.159 27.2068 174.683 27.2362C174.388 27.2947 174.124 27.4566 173.937 27.6926C173.751 27.9286 173.654 28.2234 173.666 28.5239C173.613 29.3001 173.783 30.0468 174.154 30.2879C174.524 30.529 174.877 30.4349 174.912 30.5055Z" fill="#EB996E"/>
<path d="M245.766 26.6776C245.686 26.8551 245.577 27.018 245.443 27.1598C245.058 27.5683 244.561 27.8546 244.014 27.983C243.147 28.2003 242.232 28.1365 241.403 27.8007C240.339 27.3315 239.348 26.7095 238.463 25.9544C237.452 25.19 236.323 24.2845 234.877 23.9728C234.129 23.8315 233.358 23.8636 232.625 24.0669C231.842 24.2949 231.083 24.6002 230.361 24.9783C229.608 25.3605 228.844 25.7839 228.009 26.1543C227.178 26.5615 226.275 26.8013 225.351 26.8599C224.377 26.8921 223.417 26.6141 222.611 26.0661C221.814 25.4868 221.119 24.7794 220.553 23.9728C219.377 22.4087 218.424 20.7094 216.99 19.5981C216.293 19.051 215.463 18.7017 214.585 18.5867C213.735 18.491 212.876 18.5287 212.039 18.6985C210.392 19.0042 208.852 19.5275 207.335 19.7216C205.927 19.8915 204.499 19.7674 203.142 19.357C201.173 18.7709 199.413 17.6346 198.068 16.0819C197.574 15.5216 197.162 14.894 196.845 14.2179C196.88 14.2523 196.91 14.292 196.933 14.3355C196.992 14.4355 197.068 14.5531 197.162 14.7001C198.563 16.8714 200.712 18.4532 203.201 19.1453C204.536 19.537 205.937 19.6472 207.317 19.4687C208.799 19.2688 210.328 18.7396 212.021 18.4221C212.887 18.2387 213.776 18.197 214.655 18.2986C215.583 18.4175 216.463 18.783 217.201 19.357C218.707 20.533 219.665 22.25 220.829 23.7905C221.373 24.5704 222.042 25.2541 222.811 25.8133C223.563 26.3272 224.458 26.5887 225.369 26.56C226.256 26.5051 227.123 26.2753 227.921 25.8838C228.726 25.531 229.485 25.1135 230.243 24.7078C230.984 24.3203 231.762 24.009 232.566 23.7788C233.333 23.5718 234.137 23.5416 234.918 23.6906C236.279 24.0968 237.533 24.802 238.587 25.7545C239.45 26.5069 240.416 27.1326 241.456 27.6125C242.252 27.9464 243.131 28.0265 243.973 27.8419C244.504 27.723 244.994 27.463 245.39 27.0892C245.661 26.8481 245.755 26.6717 245.766 26.6776Z" fill="#263238"/>
<path d="M110.338 143.484L99.6719 164.999L102.853 165.116L93.8154 182.215H98.5665L91.1577 197.403H132.547L123.433 182.215L127.802 182.021L119.07 164.934L122.298 164.746L110.338 143.484Z" fill="#455A64"/>
<path d="M112.137 168.45C112.226 168.45 112.137 177.564 111.996 188.801C111.855 200.038 111.626 209.146 111.544 209.146C111.461 209.146 111.544 200.032 111.691 188.795C111.838 177.558 112.055 168.45 112.137 168.45Z" fill="#263238"/>
<path d="M117.212 173.972C117.049 174.317 116.833 174.634 116.571 174.912C115.99 175.619 115.37 176.293 114.713 176.929C113.96 177.688 113.278 178.364 112.802 178.876C112.563 179.17 112.295 179.44 112.002 179.681C112.163 179.334 112.378 179.015 112.637 178.734C113.221 178.031 113.842 177.357 114.495 176.718C115.254 175.959 115.936 175.283 116.412 174.771C116.648 174.476 116.916 174.208 117.212 173.972Z" fill="#263238"/>
<path d="M112.038 179.899C111.199 179.429 110.411 178.876 109.686 178.246C108.892 177.691 108.159 177.054 107.498 176.347C108.337 176.816 109.125 177.369 109.85 177.999C110.644 178.554 111.377 179.19 112.038 179.899Z" fill="#263238"/>
<path d="M111.755 190.453C110.832 189.8 109.947 189.096 109.103 188.342C108.194 187.668 107.324 186.941 106.499 186.167C107.506 186.696 108.446 187.346 109.297 188.101C110.211 188.781 111.036 189.571 111.755 190.453Z" fill="#263238"/>
<path d="M117.653 183.926C117.729 183.985 116.518 185.561 114.813 187.296L112.667 189.542C112.395 189.876 112.09 190.182 111.755 190.453C111.679 190.394 112.89 188.819 114.595 187.084L116.742 184.844C117.014 184.508 117.319 184.201 117.653 183.926Z" fill="#263238"/>
</svg>
