<svg width="353" height="254" viewBox="0 0 353 254" fill="none" xmlns="http://www.w3.org/2000/svg">
<path d="M229.086 95.4615V121.895C229.125 124.164 230.057 126.325 231.678 127.912C233.3 129.499 235.481 130.383 237.75 130.373H332.52C333.658 130.375 334.786 130.153 335.839 129.719C336.892 129.285 337.849 128.648 338.655 127.844C339.461 127.04 340.101 126.085 340.538 125.033C340.975 123.982 341.2 122.854 341.201 121.716V99.3705L353 86.9719L237.762 86.6122C236.609 86.616 235.468 86.8488 234.406 87.297C233.344 87.7452 232.381 88.4 231.574 89.2233C230.767 90.0465 230.131 91.0219 229.704 92.0928C229.277 93.1637 229.067 94.3087 229.086 95.4615Z" fill="#F5F5F5"/>
<path d="M327.208 102.632L241.179 102.23L241.191 99.5863L327.214 99.988L327.208 102.632Z" fill="#E0E0E0"/>
<path d="M327.208 111.331L241.179 110.93L241.191 108.286L327.214 108.687L327.208 111.331Z" fill="#E0E0E0"/>
<path d="M293.172 116.995L293.159 119.639L327.195 119.806L327.208 117.162L293.172 116.995Z" fill="#E0E0E0"/>
<path d="M67.4908 230.221C80.7467 220.958 83.7505 203.769 83.2289 188.313C83.1389 185.735 83.4207 183.013 82.1976 180.753C80.9746 178.492 78.1087 176.94 75.7945 178.031C73.882 178.93 73.0486 181.16 71.9754 183.001C70.5442 185.459 68.4471 187.463 65.926 188.781C64.2832 189.632 62.2508 190.154 60.632 189.26C58.4017 188.031 58.1439 184.955 58.1559 182.389L58.2458 168.048C58.2458 165.482 58.2458 162.862 57.4724 160.428C56.699 157.994 54.9123 155.734 52.4722 155.032C50.0321 154.331 47.0163 155.752 46.4768 158.264C46.2609 159.307 46.4767 160.392 46.3988 161.459C46.3209 162.527 45.8352 163.702 44.822 164.001C43.8088 164.301 42.7716 163.576 42.0042 162.802C39.3542 160.212 37.5615 156.879 35.8828 153.557C34.2041 150.236 32.5733 146.842 30.1691 144.019C27.765 141.195 24.4435 138.952 20.7683 138.743C17.0931 138.533 13.178 140.805 12.2547 144.414C11.3314 148.024 13.4538 151.699 15.7261 154.607C19.1312 158.959 23.1478 162.795 27.6511 165.998C28.4604 166.597 29.3358 167.197 29.6475 168.138C30.1991 169.853 28.5803 171.55 26.8956 172.113C24.9831 172.749 22.9027 172.551 20.9002 172.785C18.8977 173.019 16.7034 173.906 15.9779 175.782C14.9227 178.402 17.117 181.178 19.2754 182.977C23.5992 186.586 28.511 189.425 33.7964 191.371C35.679 192.06 37.6694 192.666 39.1923 193.991C40.7151 195.316 41.6324 197.624 40.7151 199.429C39.7978 201.233 37.4356 201.827 35.4571 201.449C33.4786 201.071 31.716 200.01 29.8274 199.303C26.3021 197.972 21.7515 198.211 19.4912 201.263C18.0104 203.266 17.8785 206.059 18.6279 208.458C19.3773 210.856 20.9002 212.9 22.5189 214.795C28.1667 221.426 35.4032 226.786 43.581 229.598C51.7587 232.409 59.337 233.195 67.4668 230.233" fill="#F5F5F5"/>
<path d="M67.6886 241.672C66.9702 234.508 65.5648 227.428 63.4918 220.533C60.9288 212.114 57.8821 203.851 54.3667 195.783C53.4514 193.629 52.5441 191.507 51.6448 189.416C50.7455 187.33 49.8461 185.261 48.8569 183.289C46.9369 179.511 44.8092 175.842 42.4837 172.299C40.2834 168.9 38.0771 165.752 35.9847 162.826C33.8923 159.901 31.8898 157.221 29.9892 154.846C26.9617 151.089 23.6397 147.578 20.0548 144.348C18.7897 143.203 17.7765 142.346 17.057 141.776L16.2477 141.123C16.1628 141.046 16.0704 140.978 15.9719 140.919C16.0471 141.005 16.1293 141.086 16.2177 141.159L16.9791 141.842C17.6506 142.442 18.6458 143.311 19.8869 144.474C23.4146 147.749 26.6914 151.284 29.6894 155.05C31.596 157.448 33.5805 160.116 35.6549 163.048C37.7293 165.98 39.9237 169.128 42.106 172.527C44.415 176.064 46.5285 179.725 48.4372 183.493C49.4265 185.453 50.3078 187.504 51.2071 189.596L53.9291 195.957C57.435 204.01 60.4875 212.253 63.0721 220.646C65.1527 227.514 66.5839 234.561 67.3469 241.696" fill="#E0E0E0"/>
<path d="M48.7251 183.271C48.8513 182.918 48.9358 182.552 48.9769 182.18C49.1148 181.472 49.2706 180.435 49.4505 179.182C49.8162 176.628 50.1939 173.085 50.6016 169.176C51.0093 165.267 51.435 161.735 51.8367 159.193C52.0345 157.922 52.2024 156.897 52.3283 156.195C52.4176 155.832 52.4658 155.46 52.4722 155.086C52.3254 155.431 52.2169 155.791 52.1485 156.159C51.9686 156.855 51.7468 157.88 51.5069 159.157C51.0213 161.693 50.5357 165.231 50.134 169.152L49.1208 179.164C48.9948 180.363 48.8809 181.382 48.797 182.198C48.7363 182.552 48.7122 182.912 48.7251 183.271Z" fill="#E0E0E0"/>
<path d="M15.7441 177.096C16.1753 177.192 16.6152 177.245 17.0571 177.251C17.9024 177.329 19.1315 177.431 20.6543 177.605C23.6521 177.935 27.8489 178.528 32.3934 179.404C36.938 180.279 41.0449 181.232 43.9826 182.012C45.4515 182.395 46.6386 182.731 47.46 182.965C47.8775 183.107 48.3069 183.211 48.743 183.277C48.3592 183.077 47.9578 182.912 47.5439 182.785C46.7345 182.503 45.5654 182.114 44.0965 181.688C41.1768 180.825 37.0819 179.805 32.5073 178.936C28.6093 178.184 24.6751 177.634 20.7203 177.287C19.2035 177.155 17.9684 177.101 17.123 177.09C16.6643 177.047 16.2025 177.049 15.7441 177.096Z" fill="#E0E0E0"/>
<path d="M63.0961 219.927C63.1861 219.803 63.2606 219.668 63.318 219.525C63.4738 219.202 63.6597 218.806 63.8815 218.326C64.3672 217.283 65.0327 215.766 65.8241 213.872C67.4189 210.094 69.4513 204.806 71.6157 198.943C73.78 193.079 75.7645 187.773 77.2754 183.954L79.074 179.452C79.2659 178.96 79.4217 178.552 79.5536 178.253C79.624 178.113 79.6707 177.964 79.6915 177.809C79.6009 177.935 79.5264 178.072 79.4697 178.217C79.3138 178.534 79.128 178.93 78.9061 179.416C78.4205 180.459 77.755 181.976 76.9636 183.87C75.3688 187.647 73.3364 192.935 71.172 198.805C69.0076 204.675 67.0231 209.969 65.5123 213.794C64.7689 215.646 64.1633 217.169 63.7137 218.296C63.5218 218.788 63.3659 219.196 63.234 219.525C63.1685 219.652 63.1221 219.787 63.0961 219.927Z" fill="#E0E0E0"/>
<path d="M19.2454 205.802C19.3842 205.876 19.531 205.934 19.6831 205.976L20.9541 206.407L25.6486 207.924C29.6115 209.213 35.0614 211.048 41.0868 213.086C47.1123 215.125 52.5861 216.917 56.5791 218.122C58.5696 218.722 60.1763 219.195 61.3155 219.495L62.6165 219.837C62.7665 219.884 62.9214 219.914 63.0781 219.927C62.9406 219.848 62.7935 219.788 62.6405 219.747L61.3694 219.321L56.675 217.799C52.712 216.516 47.2562 214.675 41.2367 212.636C35.2173 210.598 29.7375 208.805 25.7445 207.6C23.754 207.001 22.1472 206.527 21.0081 206.227L19.7251 205.874C19.5699 205.825 19.4081 205.801 19.2454 205.802Z" fill="#E0E0E0"/>
<path d="M98.0736 68.1043V88.5907C98.0736 90.3706 97.3669 92.0776 96.1089 93.3367C94.8509 94.5959 93.1445 95.304 91.3646 95.3056H17.9084C16.1286 95.304 14.4221 94.5959 13.1641 93.3367C11.9062 92.0776 11.1995 90.3706 11.1995 88.5907V71.2818L2.05646 61.6891L91.3467 61.3834C92.2302 61.381 93.1055 61.5532 93.9224 61.89C94.7392 62.2269 95.4814 62.7217 96.1065 63.3462C96.7315 63.9707 97.227 64.7125 97.5646 65.529C97.9022 66.3455 98.0751 67.2207 98.0736 68.1043Z" fill="#E0E0E0"/>
<path d="M22.0273 73.8059L88.6847 73.5001L88.6787 71.4497L22.0213 71.7555L22.0273 73.8059Z" fill="#FAFAFA"/>
<path d="M22.0273 80.5448L88.6847 80.239L88.6787 78.1886L22.0213 78.5003L22.0273 80.5448Z" fill="#FAFAFA"/>
<path d="M48.3858 84.9451L22.0121 85.0739L22.0222 87.1244L48.3958 86.9955L48.3858 84.9451Z" fill="#FAFAFA"/>
<path d="M62.0829 105.912L62.0829 246.805C62.0829 250.629 65.1832 253.729 69.0076 253.729H277.23C281.054 253.729 284.154 250.629 284.154 246.805V105.912C284.154 102.087 281.054 98.9868 277.23 98.9868H69.0076C65.1832 98.9868 62.0829 102.087 62.0829 105.912Z" fill="#263238"/>
<path d="M77.2753 103.867L77.2753 248.855H262.733V103.867H77.2753Z" fill="white"/>
<path d="M278.792 177.738C279.542 174.547 277.564 171.351 274.373 170.601C271.181 169.851 267.986 171.83 267.236 175.021C266.486 178.212 268.465 181.407 271.656 182.157C274.847 182.907 278.042 180.929 278.792 177.738Z" fill="#455A64"/>
<path d="M68.4741 153.785V198.931C68.4741 199.335 68.8015 199.662 69.2055 199.662H70.1948C70.5987 199.662 70.9262 199.335 70.9262 198.931V153.785C70.9262 153.381 70.5987 153.054 70.1948 153.054H69.2055C68.8015 153.054 68.4741 153.381 68.4741 153.785Z" fill="#455A64"/>
<path d="M129.884 188.936C134.433 182.024 132.517 172.733 125.605 168.184C118.693 163.635 109.402 165.551 104.853 172.463C100.304 179.375 102.219 188.666 109.132 193.215C116.044 197.764 125.335 195.848 129.884 188.936Z" fill="#F96B1B"/>
<path opacity="0.3" d="M129.884 188.936C134.433 182.024 132.517 172.733 125.605 168.184C118.693 163.635 109.402 165.551 104.853 172.463C100.304 179.375 102.219 188.666 109.132 193.215C116.044 197.764 125.335 195.848 129.884 188.936Z" fill="white"/>
<path d="M112.175 176.94C112.738 176.892 113.254 177.539 113.326 178.343C113.398 179.146 112.984 179.859 112.415 179.907C111.845 179.955 111.335 179.308 111.27 178.51C111.204 177.713 111.629 176.988 112.175 176.94Z" fill="#263238"/>
<path d="M121.72 176.742C121.156 176.742 120.664 177.341 120.628 178.193C120.592 179.044 121.03 179.698 121.6 179.721C122.169 179.745 122.661 179.122 122.691 178.277C122.721 177.431 122.289 176.766 121.72 176.742Z" fill="#263238"/>
<path d="M123.356 183.691C123.356 183.864 120.562 184.008 117.121 184.008C113.68 184.008 110.88 183.864 110.88 183.691C110.88 183.517 113.674 183.367 117.121 183.367C120.568 183.367 123.356 183.505 123.356 183.691Z" fill="#263238"/>
<path d="M113.374 175.219C113.338 175.399 112.624 175.393 111.791 175.525C110.958 175.657 110.28 175.872 110.19 175.717C110.1 175.561 110.73 175.045 111.695 174.895C112.66 174.745 113.374 175.051 113.374 175.219Z" fill="#263238"/>
<path d="M124.424 175.944C124.316 176.088 123.668 175.753 122.835 175.501C122.001 175.249 121.282 175.159 121.264 174.973C121.246 174.787 122.061 174.589 123.021 174.889C123.98 175.189 124.537 175.819 124.424 175.944Z" fill="#263238"/>
<path d="M241.176 181.923C242.525 173.454 236.753 165.495 228.283 164.146C219.814 162.797 211.855 168.569 210.506 177.038C209.157 185.508 214.929 193.467 223.398 194.816C231.867 196.165 239.827 190.393 241.176 181.923Z" fill="#F96B1B"/>
<path opacity="0.3" d="M241.176 181.923C242.525 173.454 236.753 165.495 228.283 164.146C219.814 162.797 211.855 168.569 210.506 177.038C209.157 185.508 214.929 193.467 223.398 194.816C231.867 196.165 239.827 190.393 241.176 181.923Z" fill="black"/>
<path d="M220.471 175.561C221.07 175.513 221.598 176.16 221.67 177.012C221.742 177.863 221.322 178.588 220.734 178.636C220.147 178.684 219.607 178.037 219.535 177.185C219.463 176.334 219.883 175.609 220.471 175.561Z" fill="#263238"/>
<path d="M230.345 175.357C229.746 175.357 229.248 176.004 229.212 176.856C229.176 177.707 229.632 178.415 230.219 178.439C230.807 178.463 231.316 177.791 231.352 176.94C231.388 176.088 230.939 175.381 230.345 175.357Z" fill="#263238"/>
<path d="M232.042 182.551C231.976 182.635 231.328 182.174 230.243 181.604C228.816 180.859 227.231 180.468 225.621 180.465C224.009 180.536 222.43 180.945 220.986 181.664C219.859 182.216 219.188 182.635 219.134 182.551C219.08 182.467 219.667 181.952 220.776 181.268C222.238 180.384 223.901 179.887 225.609 179.823C227.326 179.819 229.009 180.299 230.465 181.208C231.538 181.892 232.084 182.491 232.042 182.551Z" fill="#263238"/>
<path d="M221.658 173.774C221.712 173.84 221.61 174.038 221.352 174.26C221.014 174.564 220.599 174.772 220.153 174.859C219.698 174.946 219.228 174.894 218.804 174.709C218.486 174.565 218.342 174.398 218.378 174.32C218.414 174.242 219.188 174.398 220.039 174.23C220.89 174.062 221.544 173.63 221.658 173.774Z" fill="#263238"/>
<path d="M233.151 174.529C233.151 174.607 233.007 174.757 232.659 174.865C232.202 174.995 231.716 174.978 231.268 174.817C230.829 174.663 230.436 174.401 230.123 174.056C229.896 173.792 229.812 173.582 229.872 173.522C229.931 173.462 230.633 173.918 231.472 174.212C232.312 174.505 233.091 174.35 233.151 174.529Z" fill="#263238"/>
<path d="M196.069 222.577L199.666 220.796L203.18 222.751L202.592 218.776L205.536 216.042L201.573 215.37L199.882 211.725L198.024 215.287L194.037 215.766L196.843 218.638L196.069 222.577Z" fill="#E0E0E0"/>
<path d="M181.392 222.577L184.99 220.796L188.503 222.751L187.915 218.776L190.859 216.042L186.896 215.37L185.205 211.725L183.347 215.287L179.36 215.766L182.166 218.638L181.392 222.577Z" fill="#F96B1B"/>
<path d="M166.715 222.577L170.313 220.796L173.82 222.751L173.238 218.776L176.182 216.042L172.219 215.37L170.529 211.725L168.67 215.287L164.683 215.766L167.489 218.638L166.715 222.577Z" fill="#F96B1B"/>
<path d="M152.039 222.577L155.636 220.796L159.143 222.751L158.562 218.776L161.505 216.042L157.542 215.37L155.852 211.725L153.993 215.287L150.006 215.766L152.812 218.638L152.039 222.577Z" fill="#F96B1B"/>
<path d="M137.362 222.577L140.959 220.796L144.466 222.751L143.885 218.776L146.829 216.042L142.866 215.37L141.175 211.725L139.316 215.287L135.329 215.766L138.135 218.638L137.362 222.577Z" fill="#F96B1B"/>
<path d="M205.704 134.234C205.704 134.324 189.6 134.396 169.731 134.396C149.862 134.396 133.758 134.324 133.758 134.234C133.758 134.144 149.856 134.078 169.731 134.078C189.606 134.078 205.704 134.15 205.704 134.234Z" fill="#263238"/>
<path d="M188.017 129.917C188.017 130.007 180.067 130.079 170.259 130.079C160.45 130.079 152.494 130.007 152.494 129.917C152.494 129.827 160.444 129.755 170.259 129.755C180.073 129.755 188.017 129.827 188.017 129.917Z" fill="#263238"/>
<path d="M192.293 182.188C195.758 171.434 189.849 159.908 179.096 156.443C168.343 152.978 156.816 158.887 153.351 169.64C149.887 180.393 155.795 191.919 166.548 195.384C177.302 198.849 188.828 192.941 192.293 182.188Z" fill="#F96B1B"/>
<path d="M165.75 170.74C166.524 170.68 167.225 171.532 167.321 172.653C167.417 173.774 166.859 174.727 166.086 174.793C165.313 174.859 164.605 174.002 164.515 172.887C164.425 171.772 164.977 170.806 165.75 170.74Z" fill="#263238"/>
<path d="M178.754 170.501C177.981 170.465 177.309 171.352 177.267 172.473C177.225 173.594 177.813 174.529 178.586 174.559C179.36 174.589 180.031 173.708 180.079 172.587C180.127 171.466 179.534 170.501 178.754 170.501Z" fill="#263238"/>
<path d="M180.985 177.185C181.021 177.221 180.853 177.431 180.523 177.785C180.053 178.291 179.54 178.755 178.988 179.17C178.161 179.789 177.251 180.287 176.284 180.651C175.086 181.1 173.81 181.304 172.531 181.25C171.262 181.183 170.014 180.895 168.844 180.399C167.894 180.015 166.985 179.539 166.128 178.978C164.677 178.007 163.91 177.251 163.952 177.179C163.993 177.108 164.887 177.719 166.35 178.57C167.213 179.062 168.113 179.485 169.042 179.835C170.164 180.272 171.347 180.529 172.549 180.597C173.746 180.647 174.941 180.475 176.074 180.087C177.005 179.764 177.892 179.329 178.718 178.792C179.414 178.313 179.977 177.911 180.343 177.593C180.709 177.275 180.955 177.155 180.985 177.185Z" fill="#263238"/>
<path d="M166.673 166.142C166.637 166.322 165.66 166.256 164.497 166.442C163.334 166.628 162.423 166.981 162.333 166.819C162.243 166.657 163.106 166.01 164.401 165.812C165.696 165.614 166.733 165.974 166.673 166.142Z" fill="#263238"/>
<path d="M183.143 167.095C183.029 167.239 182.166 166.723 181.003 166.376C179.839 166.028 178.838 165.956 178.832 165.776C178.826 165.596 179.905 165.368 181.194 165.776C182.483 166.184 183.257 166.969 183.143 167.095Z" fill="#263238"/>
<path d="M164.287 175.717C164.365 175.717 164.497 175.914 164.515 176.316C164.525 176.823 164.369 177.32 164.071 177.731C163.781 178.151 163.359 178.463 162.872 178.618C162.501 178.726 162.273 178.672 162.243 178.618C162.243 178.438 162.998 178.175 163.538 177.383C164.077 176.592 164.107 175.747 164.287 175.717Z" fill="#263238"/>
<path d="M182.717 177.599C182.717 177.677 182.561 177.803 182.244 177.827C181.826 177.846 181.415 177.719 181.081 177.467C180.739 177.221 180.495 176.862 180.391 176.454C180.325 176.142 180.391 175.944 180.475 175.938C180.655 175.938 180.859 176.538 181.458 176.952C182.058 177.365 182.675 177.419 182.717 177.599Z" fill="#263238"/>
<path d="M197.82 175.717C197.82 175.717 197.82 175.579 197.784 175.303L197.706 174.104C197.706 173.84 197.676 173.54 197.658 173.216C197.64 172.893 197.55 172.539 197.496 172.155C197.442 171.772 197.37 171.358 197.298 170.92C197.212 170.451 197.102 169.987 196.968 169.529C196.375 167.154 195.425 164.882 194.151 162.79C192.488 160.001 190.304 157.559 187.717 155.596L186.62 154.786C186.237 154.535 185.835 154.301 185.421 154.055C185.008 153.809 184.624 153.539 184.186 153.342L182.873 152.712L182.208 152.394L181.506 152.142L180.079 151.621C179.6 151.459 179.09 151.357 178.592 151.225C178.091 151.075 177.58 150.959 177.064 150.877C176.008 150.68 174.94 150.556 173.868 150.506C173.322 150.506 172.771 150.434 172.219 150.446L170.547 150.53C170.265 150.53 169.983 150.53 169.701 150.584L168.856 150.716C168.298 150.806 167.723 150.871 167.159 150.991C166.015 151.244 164.889 151.574 163.79 151.981C162.659 152.387 161.557 152.87 160.492 153.426C159.959 153.719 159.449 154.055 158.921 154.367C158.664 154.535 158.388 154.673 158.142 154.858L157.399 155.416C156.391 156.164 155.434 156.977 154.533 157.85L153.25 159.265L152.926 159.625L152.632 160.009L152.033 160.782L151.433 161.555L150.923 162.389L150.414 163.228L150.162 163.648L149.946 164.085L149.089 165.884L148.405 167.755C146.667 172.926 146.667 178.525 148.405 183.697C148.639 184.296 148.867 184.944 149.095 185.567C149.323 186.191 149.664 186.766 149.952 187.366L150.168 187.809L150.42 188.229L150.929 189.062L151.439 189.896L152.039 190.675L152.638 191.449L152.926 191.832L153.25 192.186L154.533 193.601C155.434 194.476 156.391 195.291 157.399 196.041L158.148 196.593C158.394 196.785 158.67 196.922 158.927 197.09C159.455 197.402 159.965 197.738 160.498 198.032C162.608 199.123 164.848 199.941 167.165 200.466C167.729 200.586 168.304 200.652 168.868 200.742L169.707 200.873C169.989 200.909 170.271 200.909 170.553 200.927L172.225 201.011C172.777 201.011 173.328 200.969 173.874 200.951C174.947 200.901 176.014 200.777 177.07 200.58C177.586 200.495 178.096 200.379 178.598 200.232C179.102 200.1 179.606 199.992 180.091 199.836L181.512 199.315L182.214 199.063L182.879 198.745L184.192 198.116C184.616 197.899 185.028 197.661 185.427 197.402C185.829 197.156 186.237 196.922 186.626 196.671L187.717 195.855C190.306 193.893 192.492 191.45 194.157 188.661C195.43 186.559 196.378 184.277 196.968 181.892C197.102 181.436 197.212 180.974 197.298 180.507C197.37 180.069 197.436 179.656 197.496 179.272C197.556 178.888 197.622 178.534 197.658 178.211C197.694 177.887 197.694 177.611 197.706 177.323C197.742 176.802 197.766 176.4 197.784 176.124C197.802 175.848 197.82 175.711 197.82 175.711C197.82 175.711 197.82 175.848 197.82 176.124C197.82 176.4 197.79 176.808 197.772 177.323C197.772 177.593 197.772 177.923 197.736 178.217C197.7 178.51 197.64 178.9 197.592 179.284C197.544 179.668 197.472 180.087 197.406 180.531C197.324 181 197.218 181.464 197.088 181.922C196.518 184.323 195.582 186.622 194.312 188.739C192.651 191.554 190.461 194.022 187.861 196.005L186.758 196.833C186.375 197.09 185.967 197.324 185.559 197.576C185.151 197.828 184.756 198.098 184.312 198.295L182.993 198.937L182.322 199.279L181.614 199.536L180.181 200.064C179.69 200.232 179.18 200.334 178.676 200.472C178.168 200.623 177.652 200.743 177.13 200.832C176.062 201.031 174.983 201.158 173.898 201.209C173.352 201.209 172.795 201.287 172.237 201.281L170.547 201.197C170.259 201.197 169.947 201.197 169.689 201.143L168.838 201.011C168.268 200.921 167.687 200.855 167.117 200.736C165.96 200.478 164.82 200.145 163.706 199.74C162.563 199.33 161.45 198.843 160.372 198.283C159.827 197.99 159.311 197.648 158.777 197.33C158.505 197.179 158.24 197.013 157.986 196.833L157.231 196.269C156.21 195.515 155.241 194.694 154.329 193.811L153.028 192.378L152.698 192.018L152.404 191.628L151.805 190.849L151.205 190.058L150.69 189.218L150.174 188.373L149.916 187.947L149.7 187.498L148.831 185.699C148.597 185.069 148.369 184.434 148.136 183.804C146.377 178.568 146.377 172.901 148.136 167.665L148.831 165.77L149.7 163.971L149.922 163.522L150.18 163.096L150.696 162.251L151.211 161.411L151.811 160.626L152.41 159.841L152.704 159.451L153.028 159.091C153.466 158.618 153.897 158.138 154.329 157.664C155.242 156.781 156.211 155.958 157.231 155.2L157.986 154.637C158.238 154.451 158.514 154.307 158.777 154.139C159.311 153.827 159.833 153.485 160.372 153.192C161.45 152.632 162.563 152.145 163.706 151.735C164.82 151.33 165.96 150.998 167.117 150.74C167.687 150.62 168.268 150.554 168.838 150.464L169.689 150.332C169.971 150.296 170.259 150.296 170.541 150.278L172.231 150.194C172.795 150.194 173.346 150.242 173.898 150.266C174.983 150.318 176.062 150.444 177.13 150.644C177.651 150.734 178.167 150.852 178.676 150.997C179.18 151.141 179.69 151.243 180.175 151.405L181.614 151.933L182.322 152.196L182.993 152.52L184.318 153.156C184.762 153.36 185.151 153.647 185.559 153.881C185.967 154.115 186.375 154.367 186.758 154.625L187.861 155.452C190.459 157.432 192.65 159.895 194.312 162.706C195.582 164.817 196.52 167.11 197.094 169.505C197.202 170.003 197.364 170.459 197.412 170.902C197.46 171.346 197.538 171.76 197.598 172.149C197.658 172.539 197.712 172.887 197.742 173.216C197.772 173.546 197.742 173.816 197.778 174.104C197.778 174.631 197.814 175.033 197.826 175.303C197.838 175.573 197.82 175.717 197.82 175.717Z" fill="#F96B1B"/>
<path d="M262.733 103.867H77.2753V113.118H262.733V103.867Z" fill="#E0E0E0"/>
<path d="M83.2588 108.238C83.2588 108.486 83.1853 108.728 83.0476 108.934C82.9099 109.14 82.7142 109.301 82.4853 109.395C82.2563 109.49 82.0043 109.515 81.7613 109.467C81.5182 109.418 81.2949 109.299 81.1197 109.124C80.9445 108.949 80.8251 108.725 80.7768 108.482C80.7284 108.239 80.7532 107.987 80.8481 107.758C80.9429 107.529 81.1035 107.334 81.3096 107.196C81.5156 107.058 81.7579 106.985 82.0057 106.985C82.3381 106.985 82.6568 107.117 82.8918 107.352C83.1268 107.587 83.2588 107.905 83.2588 108.238Z" fill="white"/>
<path d="M87.4197 108.238C87.4197 108.486 87.3462 108.728 87.2085 108.934C87.0708 109.14 86.8751 109.301 86.6461 109.395C86.4172 109.49 86.1652 109.515 85.9222 109.467C85.6791 109.418 85.4558 109.299 85.2806 109.124C85.1053 108.949 84.986 108.725 84.9377 108.482C84.8893 108.239 84.9141 107.987 85.009 107.758C85.1038 107.529 85.2644 107.334 85.4705 107.196C85.6765 107.058 85.9188 106.985 86.1666 106.985C86.499 106.985 86.8177 107.117 87.0527 107.352C87.2877 107.587 87.4197 107.905 87.4197 108.238Z" fill="white"/>
<path d="M91.5865 108.238C91.5865 108.486 91.513 108.728 91.3753 108.934C91.2376 109.14 91.0419 109.301 90.813 109.395C90.584 109.49 90.332 109.515 90.089 109.467C89.8459 109.418 89.6226 109.299 89.4474 109.124C89.2722 108.949 89.1528 108.725 89.1045 108.482C89.0561 108.239 89.0809 107.987 89.1758 107.758C89.2706 107.529 89.4312 107.334 89.6373 107.196C89.8433 107.058 90.0856 106.985 90.3334 106.985C90.6653 106.986 90.9831 107.119 91.2177 107.353C91.4524 107.588 91.5849 107.906 91.5865 108.238Z" fill="white"/>
<path d="M242.276 141.531C242.276 141.62 210.099 141.692 170.409 141.692C130.719 141.692 98.5352 141.62 98.5352 141.531C98.5352 141.441 130.713 141.375 170.409 141.375C210.105 141.375 242.276 141.447 242.276 141.531Z" fill="#E0E0E0"/>
<path d="M242.276 145.098C242.276 145.182 210.099 145.254 170.409 145.254C130.719 145.254 98.5352 145.182 98.5352 145.098C98.5352 145.014 130.713 144.936 170.409 144.936C210.105 144.936 242.276 145.008 242.276 145.098Z" fill="#E0E0E0"/>
<path d="M147.968 99.9641C147.968 99.9641 146.703 97.0923 146.463 96.4627C145.821 94.742 141.666 83.2128 142.668 81.4741C147.266 73.3982 150.833 67.6846 159.905 67.6846L175.93 67.5767C175.93 67.5767 191.111 64.483 201.813 99.0168L147.968 99.9641Z" fill="#455A64"/>
<path d="M114.165 102.854L135.149 98.3333L159.815 85.3652L159.905 67.6606C156.205 66.6414 149.113 69.2074 136.372 75.7005L117.433 85.4791C115.916 86.2607 114.598 87.3782 113.579 88.7463C112.559 90.1145 111.866 91.6973 111.551 93.3741C111.235 95.0508 111.307 96.7775 111.76 98.4223C112.213 100.067 113.036 101.587 114.165 102.866V102.854Z" fill="#455A64"/>
<path d="M161.385 137.124C161.08 136.129 161.29 135.487 162.74 135.979C165.942 137.052 168.802 136.698 169.497 136.081C170.193 135.463 169.557 134.282 168.514 134.372C167.375 134.369 166.242 134.211 165.145 133.904C164.254 133.693 163.405 133.334 162.633 132.843C161.961 132.417 161.385 132.016 160.876 131.644C160.876 131.644 157.92 129.51 156.997 127.795L146.87 132.13L148.501 137.202C148.695 138.091 149.11 138.917 149.709 139.602C150.307 140.288 151.07 140.811 151.925 141.123C154.82 142.064 159.425 141.722 159.425 141.722C160.27 141.171 163.526 145.883 164.515 147.544C165.504 149.205 166.673 149.415 167.057 148.401C167.315 147.706 164.419 142.544 163.412 140.919C162.599 139.728 161.919 138.451 161.385 137.112" fill="#B77153"/>
<path d="M154.527 141.722C154.527 141.758 154.275 141.722 153.927 141.578C153.477 141.35 153.108 140.99 152.866 140.547C152.618 140.108 152.503 139.606 152.536 139.102C152.572 138.719 152.692 138.503 152.728 138.503C152.683 139.154 152.829 139.804 153.149 140.372C153.468 140.941 153.947 141.404 154.527 141.704V141.722Z" fill="#995037"/>
<path d="M157.74 141.872C157.74 141.908 157.5 141.872 157.177 141.71C156.757 141.474 156.413 141.123 156.187 140.697C155.956 140.274 155.848 139.794 155.876 139.312C155.912 138.946 156.014 138.713 156.056 138.755C156.074 139.376 156.215 139.987 156.469 140.553C156.806 141.069 157.237 141.517 157.74 141.872Z" fill="#995037"/>
<path d="M113.566 102.152C113.566 102.152 145.713 139.096 145.671 138.485C145.629 137.873 160.06 127.094 160.06 127.094L128.566 89.562L113.566 102.152Z" fill="#455A64"/>
<path d="M133.063 94.9099C133.063 94.9099 133.147 94.9759 133.291 95.1257L133.89 95.7972L136.049 98.2913C137.847 100.402 140.347 103.34 143.081 106.595C145.815 109.851 148.279 112.812 150.048 114.989L152.129 117.549L152.686 118.256C152.806 118.418 152.872 118.508 152.86 118.514C152.777 118.452 152.703 118.379 152.638 118.298L152.039 117.627C151.493 117.027 150.768 116.158 149.88 115.133C148.082 113.022 145.575 110.084 142.842 106.829C140.108 103.573 137.65 100.612 135.875 98.4352L133.794 95.8752C133.573 95.5934 133.387 95.3596 133.243 95.1677C133.173 95.0892 133.113 95.0026 133.063 94.9099Z" fill="#263238"/>
<path d="M189.93 99.1547C190.147 98.3722 190.276 97.5678 190.313 96.7565C190.333 95.7959 190.158 94.8412 189.797 93.9507C189.436 93.0601 188.898 92.2523 188.215 91.5765C187.436 90.7551 186.596 90.0476 185.919 89.3042C185.298 88.657 184.81 87.8955 184.48 87.0619C184.254 86.4909 184.163 85.8751 184.216 85.2633C184.228 85.0403 184.285 84.8221 184.384 84.6217C184.277 85.4145 184.382 86.2215 184.69 86.96C185.041 87.75 185.53 88.4708 186.135 89.0884C186.806 89.8018 187.646 90.4973 188.443 91.3366C189.221 92.1181 189.813 93.0649 190.176 94.1065C190.463 94.9549 190.587 95.85 190.541 96.7445C190.514 97.3456 190.399 97.9394 190.2 98.5072C190.146 98.7365 190.055 98.9553 189.93 99.1547Z" fill="#263238"/>
<path d="M146.571 70.7363C146.571 70.7363 146.733 70.6523 147.038 70.5144C147.344 70.3765 147.818 70.2027 148.429 70.0108C149.18 69.78 149.951 69.6233 150.732 69.5432C151.776 69.4299 152.832 69.5277 153.837 69.831C155.056 70.2183 156.15 70.9216 157.009 71.8694C157.984 72.978 158.65 74.3243 158.939 75.7724C159.302 77.3439 159.405 78.964 159.245 80.5688C159.054 82.2923 158.436 83.9409 157.446 85.3652C156.401 86.7433 155.096 87.9024 153.603 88.7766C152.194 89.6639 150.78 90.3834 149.437 91.0908L142.296 94.844L137.5 97.3441L136.181 98.0096C136.03 98.0953 135.872 98.1657 135.707 98.2194C135.849 98.1198 135.997 98.0296 136.151 97.9496L137.44 97.2302L142.236 94.6401L149.335 90.833C150.672 90.1195 152.093 89.3881 153.477 88.5068C154.932 87.6512 156.207 86.5211 157.231 85.1793C158.187 83.7912 158.781 82.1855 158.957 80.5088C159.113 78.945 159.018 77.3662 158.676 75.8324C158.413 74.4407 157.793 73.1411 156.877 72.0613C156.058 71.1351 155.006 70.4439 153.831 70.0588C152.863 69.7548 151.845 69.6427 150.833 69.729C150.061 69.795 149.296 69.9335 148.549 70.1427C147.95 70.3166 147.464 70.4725 147.146 70.5864C146.961 70.6595 146.768 70.7099 146.571 70.7363Z" fill="#263238"/>
<path d="M136.6 98.2973C136.492 98.3273 136.229 96.1749 134.802 94.0106C133.375 91.8462 131.552 90.7071 131.624 90.6232C132.063 90.7965 132.468 91.0439 132.823 91.3546C134.602 92.7624 135.867 94.7182 136.42 96.9184C136.559 97.3642 136.62 97.8308 136.6 98.2973Z" fill="#263238"/>
<path d="M183.844 94.2804C183.623 94.363 183.394 94.4252 183.161 94.4663C182.493 94.595 181.811 94.6253 181.134 94.5562C180.059 94.4449 179.02 94.1035 178.089 93.555C176.848 92.8165 175.866 91.713 175.277 90.3954C174.549 88.7939 174.411 86.9866 174.887 85.2932C175.156 84.3332 175.757 83.5 176.584 82.943C177.036 82.6434 177.585 82.5296 178.119 82.6252C178.656 82.7494 179.129 83.0649 179.45 83.5126C180.042 84.4565 180.415 85.5216 180.539 86.6291C180.664 87.7365 180.537 88.8578 180.169 89.9097C179.811 91.0353 179.195 92.0618 178.371 92.9074C177.506 93.7718 176.428 94.3923 175.247 94.7061C174.083 95.0273 172.857 95.0484 171.683 94.7674C170.508 94.4864 169.424 93.9125 168.532 93.0993C167.737 92.3171 167.139 91.3563 166.79 90.2968C166.441 89.2374 166.349 88.1098 166.524 87.0079C166.676 85.9816 167.089 85.0115 167.723 84.1901C168.039 83.7887 168.452 83.4733 168.922 83.2728C169.394 83.0776 169.924 83.0776 170.397 83.2728C170.822 83.4721 171.19 83.7775 171.464 84.1596C171.738 84.5417 171.909 84.9878 171.961 85.4551C172.028 86.2996 171.86 87.1461 171.476 87.9012C170.839 89.1828 169.974 90.3369 168.922 91.3067C168.135 92.0377 167.253 92.6607 166.302 93.1593C165.703 93.4766 165.077 93.7395 164.431 93.9447C164.215 94.0166 164.041 94.0526 163.928 94.0825C163.869 94.1023 163.809 94.1144 163.748 94.1185C163.8 94.0882 163.857 94.066 163.916 94.0526C164.029 94.0106 164.197 93.9626 164.413 93.8787C165.044 93.652 165.655 93.3754 166.242 93.0513C167.172 92.5381 168.032 91.9074 168.802 91.1748C169.821 90.2117 170.658 89.0722 171.272 87.8113C171.628 87.0904 171.781 86.2864 171.716 85.4851C171.665 85.0638 171.508 84.6624 171.259 84.3184C171.01 83.9745 170.679 83.6992 170.295 83.5186C169.888 83.3507 169.431 83.3507 169.024 83.5186C168.599 83.7031 168.228 83.9918 167.944 84.3579C167.334 85.1405 166.938 86.068 166.793 87.0499C166.63 88.1029 166.72 89.1796 167.056 90.191C167.392 91.2023 167.963 92.1191 168.724 92.8655C169.579 93.633 170.615 94.1723 171.734 94.4333C172.853 94.6942 174.02 94.6685 175.127 94.3583C176.258 94.0756 177.293 93.4961 178.125 92.6796C178.92 91.8788 179.517 90.9037 179.869 89.8318C180.212 88.7952 180.332 87.6983 180.223 86.6122C180.178 86.0869 180.067 85.5693 179.893 85.0714C179.749 84.5826 179.522 84.1222 179.222 83.7104C178.942 83.3169 178.529 83.0379 178.059 82.925C177.598 82.8409 177.123 82.9399 176.734 83.2008C175.957 83.7078 175.388 84.4753 175.127 85.3652C174.656 86.9983 174.775 88.7451 175.463 90.2994C176.023 91.5866 176.968 92.6692 178.167 93.3991C179.071 93.9513 180.083 94.303 181.134 94.4303C182.04 94.5313 182.956 94.4806 183.844 94.2804Z" fill="#FAFAFA"/>
<path d="M186.267 58.3077C185.584 57.4762 185.095 56.5035 184.834 55.4599C184.726 55.1241 184.714 54.7651 184.798 54.4227C184.841 54.2505 184.94 54.0977 185.081 53.989C185.221 53.8803 185.394 53.8219 185.571 53.8231C185.931 53.8231 186.171 54.1888 186.369 54.4946C186.955 55.377 187.449 56.3172 187.843 57.3005C187.959 57.5692 188.019 57.8591 188.017 58.1518C188.016 58.298 187.977 58.4413 187.905 58.5683C187.832 58.6953 187.729 58.8016 187.604 58.8773C187.456 58.9412 187.294 58.9638 187.134 58.9427C186.975 58.9216 186.824 58.8575 186.698 58.7574C186.457 58.5528 186.254 58.3072 186.099 58.0319" fill="#995037"/>
<path d="M187.807 57.6422L186.225 54.3208C186.045 54.0032 185.933 53.6522 185.895 53.2895C185.88 53.1074 185.92 52.9249 186.011 52.7663C186.102 52.6078 186.239 52.4808 186.405 52.4022C186.557 52.3582 186.719 52.3561 186.873 52.3962C187.027 52.4363 187.168 52.5171 187.28 52.63C187.505 52.8537 187.687 53.1182 187.813 53.4094L188.563 54.8663C188.785 55.2525 188.95 55.6684 189.054 56.1014C189.106 56.3196 189.11 56.5461 189.068 56.7661C189.025 56.9862 188.937 57.1948 188.809 57.3784C188.671 57.5559 188.477 57.6807 188.259 57.732C188.041 57.7833 187.811 57.758 187.61 57.6602" fill="#995037"/>
<path d="M180.763 67.9124C180.763 67.9124 178.557 65.0526 178.365 63.5477C178.173 62.0429 180.013 59.3509 183.976 58.7514C185.423 58.5995 186.816 58.1241 188.053 57.3604C188.297 57.1952 188.475 56.951 188.56 56.6692C188.644 56.3874 188.628 56.0852 188.515 55.8136C187.993 54.5486 187.058 52.2163 187.13 51.8866C187.316 51.0772 187.843 51.0952 189.21 53.0857C190.577 55.0762 192.166 57.1266 191.86 58.0499C191.555 58.9732 186.722 61.833 186.722 61.833L188.041 63.9614L180.763 67.9124Z" fill="#B77153"/>
<path d="M193.869 97.3141L178.658 67.5107L188.455 62.0249L209.031 94.6401C209.031 94.6401 210.117 96.7266 211.633 99.1667H194.384" fill="#455A64"/>
<path d="M188.317 62.0249C188.317 62.0249 188.263 62.0729 188.149 62.1448L187.634 62.4566L185.667 63.6017L178.592 67.6306L178.646 67.4508C180.127 70.4485 182.052 73.9558 183.988 77.751C186.872 83.3567 189.384 88.4948 191.123 92.236C191.998 94.1065 192.694 95.6294 193.167 96.6786C193.389 97.1882 193.569 97.5899 193.701 97.8777C193.772 98.0152 193.828 98.1599 193.869 98.3093C193.779 98.1817 193.703 98.045 193.641 97.9017C193.497 97.6019 193.299 97.2062 193.041 96.7026L190.907 92.3019C189.108 88.5907 186.578 83.4706 183.713 77.8649C181.776 74.0758 179.863 70.5804 178.407 67.5467L178.353 67.4268L178.467 67.3608L185.595 63.4338L187.604 62.3487L188.137 62.0729C188.195 62.049 188.255 62.0328 188.317 62.0249Z" fill="#263238"/>
<path d="M147.968 99.9641C146.654 97.8269 145.791 95.444 145.432 92.9614C145.528 92.9614 145.941 94.5562 146.631 96.4808C147.32 98.4053 148.052 99.9221 147.968 99.9641Z" fill="#263238"/>
<path d="M181.47 56.0295C182.679 56.5196 184.014 56.6023 185.274 56.265C186.534 55.9277 187.649 55.1888 188.451 54.1604C189.253 53.132 189.698 51.8701 189.718 50.5661C189.738 49.2621 189.333 47.9871 188.563 46.9344C191.998 46.065 194.139 42.102 193.443 38.6247C192.748 35.1473 189.648 32.4374 186.183 31.6879C184.858 31.3702 183.473 31.4054 182.166 31.7899C181.516 31.9893 180.914 32.3207 180.399 32.7633C179.883 33.2058 179.464 33.7501 179.168 34.3619" fill="#263238"/>
<path d="M180.985 48.2594C180.985 48.2953 180.541 48.3793 179.816 48.757C178.795 49.3 177.987 50.1699 177.519 51.2271C177.176 52.0008 177.031 52.8481 177.098 53.692C177.165 54.5358 177.442 55.3496 177.903 56.0594C178.166 56.4693 178.489 56.8372 178.862 57.1506C179.245 57.483 179.678 57.7522 180.145 57.948C181.129 58.374 182.222 58.4752 183.267 58.2369C184.312 57.9986 185.253 57.4332 185.955 56.623C186.289 56.2419 186.562 55.8111 186.764 55.346C186.962 54.9019 187.093 54.4312 187.154 53.949C187.241 53.2444 187.18 52.5294 186.977 51.8493C186.773 51.1692 186.43 50.5387 185.971 49.9978C185.511 49.4568 184.944 49.0172 184.305 48.7066C183.667 48.396 182.971 48.2213 182.262 48.1934C181.44 48.1634 180.991 48.2953 180.985 48.2534C181.088 48.209 181.197 48.1787 181.308 48.1634C181.622 48.0965 181.941 48.0643 182.262 48.0675C183.278 48.0698 184.272 48.3666 185.123 48.922C185.975 49.4774 186.647 50.2677 187.058 51.1971C187.445 52.07 187.588 53.0314 187.472 53.979C187.419 54.4912 187.283 54.9914 187.07 55.4599C186.863 55.957 186.575 56.4168 186.219 56.8209C185.476 57.6848 184.476 58.2878 183.366 58.5414C182.256 58.795 181.093 58.6858 180.049 58.2298C179.555 58.0173 179.098 57.7279 178.694 57.3724C178.301 57.0413 177.961 56.651 177.687 56.2153C177.177 55.4094 176.889 54.4826 176.854 53.5294C176.82 52.5191 177.079 51.5208 177.599 50.654C178.119 49.7873 178.878 49.0891 179.786 48.6431C180.073 48.4979 180.377 48.3872 180.691 48.3133C180.786 48.2843 180.885 48.2662 180.985 48.2594Z" fill="#F96B1B"/>
<path d="M183.587 38.8105C184.838 38.7394 186.033 38.2714 187 37.4745C187.967 36.6776 188.655 35.5932 188.964 34.3788C189.273 33.1644 189.186 31.8832 188.718 30.7211C188.249 29.5591 187.422 28.5768 186.357 27.9168C186.872 26.4702 186.92 24.898 186.493 23.4226C186.067 21.9473 185.186 20.6436 183.978 19.6961C182.769 18.7486 181.293 18.2053 179.758 18.143C178.224 18.0808 176.708 18.5028 175.427 19.3493C174.452 17.6215 172.972 16.2334 171.186 15.3718C169.399 14.5102 167.391 14.2163 165.432 14.5297C163.474 14.8431 161.658 15.7487 160.229 17.1248C158.8 18.5009 157.827 20.2815 157.44 22.2271C155.684 21.5011 153.749 21.3251 151.891 21.7223C150.032 22.1196 148.338 23.0714 147.033 24.452C145.727 25.8325 144.871 27.5769 144.577 29.4544C144.284 31.332 144.567 33.2543 145.39 34.9674C143.467 35.1312 141.689 36.052 140.445 37.5271C139.201 39.0023 138.595 40.911 138.759 42.8335C138.922 44.7559 139.843 46.5345 141.318 47.778C142.794 49.0216 144.702 49.6282 146.625 49.4644C146.236 50.7329 146.251 52.0907 146.666 53.3507C147.081 54.6107 147.877 55.711 148.943 56.5C150.01 57.2891 151.295 57.728 152.621 57.7565C153.947 57.785 155.25 57.4015 156.349 56.659C157.052 57.7909 158.061 58.7 159.26 59.28C160.46 59.8601 161.799 60.0874 163.122 59.9353C164.446 59.7832 165.699 59.2581 166.735 58.4211C167.771 57.5841 168.548 56.4698 168.976 55.2081" fill="#263238"/>
<path d="M176.368 66.9412C176.494 64.0214 176.65 61.3774 176.65 61.3774C176.65 61.3774 183.179 60.556 183.461 53.8951C183.742 47.2341 183.077 31.8978 183.077 31.8978L171.086 26.1302L158.16 36.5383L160.186 67.115C160.328 69.2336 161.295 71.2122 162.878 72.6266C164.462 74.041 166.537 74.7786 168.658 74.6813C170.677 74.5846 172.587 73.7372 174.013 72.3053C175.439 70.8734 176.279 68.9603 176.368 66.9412Z" fill="#B77153"/>
<path d="M182.759 43.3011C182.651 43.415 182.028 42.8934 181.134 42.8575C180.241 42.8215 179.576 43.2771 179.486 43.1572C179.396 43.0373 179.546 42.8994 179.833 42.6836C180.22 42.413 180.687 42.28 181.158 42.3059C181.631 42.3251 182.084 42.5001 182.447 42.8035C182.717 43.0433 182.807 43.2532 182.759 43.3011Z" fill="#263238"/>
<path d="M172.855 43.3011C172.747 43.415 172.129 42.8934 171.23 42.8575C170.331 42.8215 169.677 43.2771 169.581 43.1572C169.485 43.0373 169.641 42.8994 169.929 42.6836C170.316 42.413 170.783 42.28 171.254 42.3059C171.727 42.3251 172.18 42.5001 172.543 42.8035C172.813 43.0433 172.903 43.2532 172.855 43.3011Z" fill="#263238"/>
<path d="M176.212 50.022C176.685 49.8811 177.176 49.8064 177.669 49.8002C177.897 49.8002 178.113 49.7402 178.155 49.5784C178.179 49.3264 178.131 49.0728 178.017 48.8469C177.809 48.2474 177.593 47.6178 177.369 46.9584C176.47 44.2664 175.829 42.0601 175.93 42.0241C176.032 41.9881 176.836 44.1405 177.729 46.8205L178.329 48.721C178.464 49.0239 178.499 49.3618 178.431 49.6863C178.396 49.7681 178.344 49.8412 178.277 49.9003C178.211 49.9594 178.132 50.0031 178.047 50.028C177.922 50.0608 177.792 50.075 177.663 50.07C177.18 50.1186 176.692 50.1025 176.212 50.022Z" fill="#263238"/>
<path d="M176.65 61.3834C173.556 61.3024 170.553 60.3188 168.01 58.5535C168.01 58.5535 170.043 63.4038 176.536 63.0201L176.65 61.3834Z" fill="#995037"/>
<path d="M167.381 26.5019C166.341 28.0032 165.794 29.7909 165.815 31.6171C165.837 33.4434 166.426 35.2177 167.501 36.6942C168.472 37.9652 169.935 39.0024 171.536 38.9424C173.137 38.8825 174.683 37.3716 174.342 35.8068C174.186 36.298 174.147 36.8188 174.228 37.3276C174.309 37.8365 174.508 38.3194 174.808 38.7379C175.109 39.1564 175.503 39.499 175.959 39.7383C176.416 39.9776 176.922 40.107 177.437 40.1162C177.952 40.1255 178.462 40.0143 178.927 39.7916C179.392 39.5688 179.798 39.2406 180.113 38.8332C180.429 38.4257 180.645 37.9503 180.744 37.4446C180.843 36.939 180.823 36.4172 180.685 35.9207C180.809 36.6399 181.063 37.3305 181.434 37.9592C181.624 38.2728 181.896 38.5289 182.22 38.7C182.544 38.8711 182.909 38.9508 183.275 38.9305C184.276 38.7986 184.858 37.7314 185.073 36.7301C185.384 35.2407 185.313 33.697 184.867 32.2423C184.422 30.7875 183.616 29.4688 182.525 28.4084C181.417 27.3701 180.105 26.5742 178.672 26.0714C177.239 25.5687 175.718 25.3702 174.204 25.4887C171.158 25.7567 168.286 27.021 166.032 29.0859" fill="#263238"/>
<path d="M168.226 28.8521C169.071 30.7405 169.528 32.7793 169.569 34.8475C169.605 36.9273 168.831 38.9396 167.411 40.4593C166.692 41.199 165.778 41.7196 164.775 41.9605C163.772 42.2014 162.722 42.1528 161.745 41.8202C162.008 42.7128 162.07 43.6525 161.927 44.5719C161.784 45.4913 161.439 46.3677 160.918 47.1382C159.803 48.6191 157.608 49.3265 155.984 48.4332C154.509 47.6298 153.873 45.8432 153.669 44.1764C153.424 42.1534 153.636 40.1013 154.289 38.1709C154.942 36.2405 156.019 34.481 157.441 33.0218C158.864 31.5626 160.595 30.4408 162.508 29.7389C164.421 29.037 166.467 28.7729 168.496 28.966" fill="#263238"/>
<path d="M159.989 44.722C159.101 44.1704 157.89 44.6201 157.183 45.3935C156.626 46.005 156.282 46.7803 156.202 47.6036C156.122 48.4268 156.311 49.2538 156.74 49.9609C157.169 50.668 157.815 51.2173 158.582 51.5265C159.35 51.8358 160.196 51.8885 160.996 51.6767" fill="#B77153"/>
<path d="M159.785 49.6803C159.785 49.7162 159.491 49.7582 159.029 49.6323C158.724 49.5532 158.441 49.4035 158.203 49.1952C157.966 48.987 157.781 48.726 157.662 48.4332C157.541 48.0854 157.554 47.7049 157.698 47.366C157.82 47.1022 158.01 46.8763 158.25 46.7125C158.664 46.4427 158.975 46.4487 158.981 46.4847C158.987 46.5207 158.712 46.6106 158.382 46.8924C158.172 47.06 158.019 47.2878 157.943 47.545C157.867 47.8023 157.872 48.0767 157.956 48.3313C158.061 48.5847 158.217 48.8139 158.414 49.0047C158.611 49.1955 158.845 49.3438 159.101 49.4404C159.539 49.5903 159.791 49.6323 159.785 49.6803Z" fill="#995037"/>
<path d="M173.406 40.5252C173.322 40.783 172.345 40.6871 171.188 40.741C170.031 40.795 169.066 40.9389 168.964 40.6871C168.862 40.4353 169.803 39.8297 171.152 39.7817C172.501 39.7338 173.496 40.2794 173.406 40.5252Z" fill="#263238"/>
<path d="M182.735 40.3394C182.633 40.4293 182.436 40.3394 182.202 40.3094C181.935 40.2452 181.659 40.2289 181.386 40.2614C181.039 40.2614 180.655 40.3574 180.361 40.3514C180.067 40.3454 179.863 40.2854 179.828 40.1535C179.792 40.0216 179.923 39.8657 180.169 39.6979C180.511 39.4797 180.899 39.3442 181.302 39.3022C181.538 39.2714 181.777 39.2967 182.001 39.3758C182.225 39.455 182.428 39.5859 182.591 39.7578C182.813 40.0276 182.831 40.2554 182.735 40.3394Z" fill="#263238"/>
<path d="M174.659 51.7247C174.906 51.565 175.185 51.4608 175.475 51.4194C175.766 51.378 176.063 51.4003 176.344 51.4849C176.622 51.5811 176.858 51.7717 177.01 52.0236C177.163 52.2755 177.222 52.5728 177.178 52.8638C177.096 53.1762 176.904 53.4486 176.638 53.6313C176.444 53.7815 176.22 53.8891 175.981 53.947C175.743 54.0048 175.494 54.0117 175.253 53.967C175.011 53.9189 174.787 53.8058 174.604 53.64C174.421 53.4742 174.287 53.2619 174.216 53.0257C174.156 52.7868 174.178 52.5349 174.276 52.3093C174.375 52.0837 174.546 51.8971 174.761 51.7787" fill="#995037"/>
<path d="M177.933 52.4382C177.933 52.4382 177.717 52.624 177.291 52.714C176.724 52.8317 176.135 52.7753 175.601 52.5521C175.068 52.327 174.613 51.9495 174.294 51.4669C174.054 51.1012 174.006 50.8314 174.042 50.8134C174.078 50.7954 174.21 51.0232 174.474 51.335C174.814 51.7331 175.24 52.0488 175.721 52.2583C176.207 52.4532 176.733 52.5332 177.255 52.4921C177.663 52.4621 177.915 52.3902 177.933 52.4382Z" fill="#263238"/>
<path d="M164.413 55.6158C164.371 55.6158 164.413 55.1481 164.185 54.3567C163.884 53.2432 163.216 52.2635 162.291 51.5748C161.66 51.1 160.927 50.7797 160.15 50.6396C159.26 50.4814 158.344 50.5599 157.494 50.8674C157.036 51.033 156.605 51.2675 156.217 51.5629C155.807 51.8601 155.449 52.2227 155.156 52.636C154.522 53.4988 154.179 54.5418 154.179 55.6128C154.179 56.6838 154.522 57.7267 155.156 58.5895C155.449 59.0029 155.807 59.3654 156.217 59.6627C156.605 59.9581 157.036 60.1926 157.494 60.3582C158.161 60.6 158.872 60.7005 159.579 60.6534C160.287 60.6063 160.978 60.4125 161.607 60.0844C162.236 59.7564 162.79 59.3011 163.234 58.7475C163.678 58.194 164.002 57.5542 164.185 56.8688C164.395 56.0774 164.371 55.6098 164.413 55.6158C164.422 55.7255 164.422 55.8358 164.413 55.9455C164.413 56.2666 164.374 56.5866 164.299 56.8988C164.03 58.0647 163.365 59.101 162.417 59.8306C161.764 60.3408 161 60.6899 160.186 60.8498C159.249 61.0299 158.28 60.9554 157.381 60.634C156.894 60.4631 156.437 60.2184 156.026 59.9085C155.589 59.5947 155.206 59.212 154.892 58.7754C154.212 57.8615 153.844 56.7523 153.844 55.6128C153.844 54.4732 154.212 53.3641 154.892 52.4502C155.206 52.0135 155.589 51.6308 156.026 51.317C156.437 51.0072 156.894 50.7625 157.381 50.5916C158.219 50.2878 159.121 50.2021 160.002 50.3427C160.883 50.4832 161.714 50.8453 162.417 51.395C163.365 52.1245 164.03 53.1608 164.299 54.3267C164.374 54.639 164.413 54.9589 164.413 55.28C164.422 55.3918 164.422 55.504 164.413 55.6158Z" fill="#F96B1B"/>
<path d="M182.729 25.8064C182.787 25.8104 182.844 25.8246 182.897 25.8484C183.053 25.91 183.196 26.0016 183.317 26.1182C183.543 26.3434 183.71 26.621 183.804 26.9265C183.897 27.2319 183.913 27.5556 183.85 27.8688C183.723 28.3446 183.459 28.7724 183.09 29.0987C182.721 29.425 182.264 29.6353 181.776 29.7034C180.542 29.8516 179.296 29.5539 178.263 28.8641L177.028 28.1506L178.383 28.5943C178.616 28.6768 178.824 28.8167 178.989 29.0012C179.153 29.1856 179.268 29.4086 179.324 29.6495C179.389 29.8891 179.405 30.1392 179.372 30.3853C179.34 30.6313 179.258 30.8683 179.132 31.0824C178.857 31.5129 178.428 31.8219 177.933 31.9457C177.433 32.0717 176.909 32.0593 176.416 31.9098C175.312 31.4797 174.39 30.684 173.802 29.6555L172.891 28.4084L173.994 29.4816C174.279 29.7765 174.485 30.1397 174.589 30.5365C174.694 30.9333 174.696 31.3504 174.593 31.7479C174.514 32.1111 174.352 32.4514 174.122 32.7432C173.891 33.0351 173.597 33.2708 173.262 33.4326C172.713 33.6936 172.101 33.7933 171.497 33.7201C170.893 33.6468 170.322 33.4037 169.851 33.0189C169.229 32.5134 168.77 31.8356 168.532 31.0704C168.469 30.8744 168.421 30.674 168.388 30.4709C168.382 30.3991 168.382 30.3268 168.388 30.255C168.418 30.255 168.454 30.5428 168.646 31.0404C168.911 31.7486 169.365 32.3706 169.959 32.8391C170.405 33.183 170.938 33.396 171.498 33.4542C172.058 33.5125 172.623 33.4136 173.131 33.1688C173.426 33.021 173.685 32.8085 173.888 32.5469C174.09 32.2853 174.231 31.9815 174.3 31.658C174.387 31.311 174.385 30.9475 174.294 30.6015C174.203 30.2555 174.025 29.9383 173.778 29.6795L174.012 29.4816C174.563 30.444 175.423 31.192 176.452 31.604C176.873 31.7596 177.332 31.7772 177.763 31.6543C178.194 31.5314 178.575 31.2744 178.85 30.9205C179.282 30.2131 179.024 29.1219 178.293 28.8761L178.413 28.6063C179.381 29.2715 180.552 29.575 181.722 29.4636C182.174 29.41 182.601 29.2246 182.948 28.9303C183.296 28.6361 183.549 28.2461 183.677 27.8089C183.739 27.5199 183.733 27.2203 183.659 26.934C183.585 26.6477 183.446 26.3827 183.251 26.1601C183.094 26.0186 182.919 25.8996 182.729 25.8064Z" fill="#455A64"/>
<path d="M166.733 36.5202C166.733 36.5202 166.733 36.5622 166.656 36.6342C166.569 36.7409 166.475 36.8411 166.374 36.9339C165.986 37.2867 165.531 37.5578 165.037 37.7313C164.262 38.001 163.421 38.0136 162.639 37.7673C162.12 37.605 161.64 37.3391 161.228 36.9855C160.816 36.632 160.48 36.1983 160.24 35.7109L160.492 35.6749C160.395 36.282 160.155 36.8573 159.792 37.3534C159.428 37.8494 158.952 38.2521 158.403 38.528C157.853 38.804 157.246 38.9454 156.631 38.9405C156.017 38.9357 155.412 38.7848 154.867 38.5003C154.322 38.2157 153.852 37.8057 153.497 37.304C153.141 36.8023 152.91 36.2233 152.823 35.6147C152.735 35.0061 152.793 34.3854 152.992 33.8038C153.192 33.2222 153.527 32.6963 153.969 32.2695L154.179 32.4913C153.471 33.0793 152.581 33.4035 151.661 33.4086C150.826 33.4248 150.003 33.2 149.293 32.7611C148.657 32.3667 148.161 31.7841 147.872 31.0944C147.637 30.5066 147.536 29.8735 147.578 29.2418C147.628 28.3442 147.974 27.4884 148.561 26.8076C148.766 26.5648 149.014 26.3616 149.293 26.2081C149.293 26.2081 149.023 26.4119 148.645 26.8856C148.109 27.5733 147.803 28.4123 147.77 29.2837C147.745 29.8836 147.854 30.4815 148.088 31.0344C148.368 31.6698 148.837 32.2036 149.431 32.5632C150.099 32.9731 150.871 33.1813 151.655 33.1628C152.504 33.1509 153.325 32.8507 153.981 32.3114L154.185 32.5333C153.675 33.0563 153.331 33.7181 153.195 34.4358C153.06 35.1536 153.139 35.8954 153.424 36.5682C153.772 37.3027 154.354 37.9009 155.079 38.2688C155.804 38.6366 156.63 38.7534 157.429 38.6007C158.128 38.4359 158.765 38.0728 159.262 37.5548C159.76 37.0368 160.098 36.3861 160.234 35.6809L160.3 35.2612L160.486 35.6449C160.705 36.103 161.012 36.5129 161.391 36.8506C161.77 37.1883 162.212 37.4469 162.693 37.6114C163.442 37.8606 164.252 37.8606 165.001 37.6114C165.485 37.4622 165.937 37.2221 166.332 36.9039C166.62 36.6521 166.733 36.5082 166.733 36.5202Z" fill="#455A64"/>
<path d="M154.868 47.1801C154.718 47.3186 154.54 47.4247 154.347 47.4919C153.822 47.7102 153.252 47.7987 152.686 47.7497C151.81 47.6849 150.992 47.2857 150.402 46.6346C150.03 46.2227 149.755 45.7323 149.599 45.1999C149.442 44.6675 149.407 44.1066 149.497 43.5589L149.772 43.6788C149.18 44.4628 148.409 45.0938 147.524 45.5194C146.841 45.8436 146.091 46.0018 145.336 45.9811C144.632 45.9613 143.943 45.7721 143.327 45.4295C142.796 45.1557 142.342 44.7524 142.007 44.2567C141.673 43.761 141.469 43.189 141.415 42.5936C141.343 41.797 141.556 41.0007 142.014 40.3453C142.144 40.1746 142.295 40.0214 142.464 39.8897C142.52 39.8379 142.585 39.7972 142.656 39.7698C142.656 39.7698 142.422 39.9736 142.116 40.4173C141.715 41.0612 141.542 41.8214 141.625 42.5756C141.687 43.1325 141.889 43.6646 142.212 44.1227C142.534 44.5807 142.968 44.9498 143.471 45.1957C144.073 45.514 144.741 45.6849 145.422 45.6942C146.103 45.7036 146.776 45.5512 147.386 45.2496C148.226 44.849 148.96 44.2553 149.527 43.5169L149.916 43.0133L149.802 43.6129C149.717 44.116 149.745 44.6318 149.883 45.1231C150.021 45.6144 150.265 46.0691 150.6 46.4547C151.141 47.0729 151.894 47.4664 152.71 47.5579C153.249 47.621 153.795 47.5658 154.311 47.396C154.671 47.2701 154.856 47.1622 154.868 47.1801Z" fill="#455A64"/>
<path d="M188.821 34.194C188.966 34.5446 189.011 34.9283 188.953 35.3032C188.882 36.2251 188.493 37.094 187.854 37.7619C187.214 38.4298 186.363 38.8554 185.445 38.9664C185.075 39.0447 184.69 39.0156 184.336 38.8824C184.336 38.8285 184.762 38.8824 185.409 38.7445C186.255 38.5851 187.03 38.1644 187.625 37.5418C188.22 36.9191 188.604 36.1257 188.725 35.2732C188.833 34.6197 188.767 34.2 188.821 34.194Z" fill="#455A64"/>
<path d="M192.514 40.4713C192.595 40.6109 192.647 40.7661 192.664 40.9269C192.736 41.3681 192.692 41.8204 192.538 42.2399C192.428 42.5668 192.237 42.8607 191.984 43.0944C191.73 43.3281 191.422 43.494 191.087 43.5769C190.685 43.6592 190.268 43.6216 189.888 43.469C189.674 43.3883 189.48 43.2647 189.316 43.1059C189.152 42.9471 189.022 42.7565 188.935 42.5457L189.234 42.4438C189.289 42.6388 189.315 42.8407 189.312 43.0433C189.295 43.5064 189.143 43.9545 188.876 44.3333C188.609 44.7121 188.238 45.0054 187.807 45.1777C187.423 45.3186 187.004 45.3375 186.608 45.2316C186.275 45.136 185.967 44.9659 185.709 44.734C185.329 44.4111 185.072 43.9661 184.984 43.475C184.93 43.1332 184.984 42.9414 184.984 42.9474C184.984 42.9534 184.984 43.1332 185.085 43.451C185.217 43.8884 185.478 44.2754 185.835 44.5601C186.085 44.7748 186.388 44.9195 186.712 44.9795C187.037 45.0396 187.371 45.0128 187.682 44.9019C188.051 44.7453 188.368 44.4869 188.597 44.1567C188.825 43.8266 188.955 43.4383 188.971 43.0373C188.974 42.871 188.952 42.7052 188.905 42.5457L189.21 42.4438C189.371 42.7672 189.636 43.0276 189.962 43.184C190.287 43.3404 190.656 43.3837 191.009 43.3071C191.303 43.2393 191.576 43.1006 191.803 42.903C192.031 42.7055 192.207 42.4552 192.316 42.174C192.475 41.7951 192.547 41.3852 192.526 40.9749C192.514 40.6391 192.46 40.4772 192.514 40.4713Z" fill="#455A64"/>
<path d="M174.204 49.3925C174.246 49.3925 174.27 49.5304 174.204 49.7342C174.122 49.9974 173.965 50.2309 173.752 50.4057C173.539 50.5804 173.279 50.6888 173.005 50.7175C172.795 50.7175 172.669 50.6815 172.675 50.6395C172.681 50.5976 173.137 50.5076 173.544 50.1539C173.952 49.8002 174.114 49.3925 174.204 49.3925Z" fill="#263238"/>
<path d="M345.506 253.729C345.506 253.819 268.164 253.885 172.765 253.885C77.3653 253.885 0 253.837 0 253.729C0 253.621 77.3413 253.573 172.765 253.573C268.188 253.573 345.506 253.645 345.506 253.729Z" fill="#263238"/>
<path d="M317.105 221.336C315.606 223.47 312.699 222.763 311.35 221.462C310.001 220.161 309.431 218.266 308.91 216.462C307.71 212.343 306.511 208.02 307.411 203.823C307.624 202.551 308.184 201.362 309.029 200.388C309.455 199.906 310 199.545 310.609 199.342C311.219 199.139 311.872 199.101 312.501 199.231C313.97 199.614 314.899 201.029 315.54 202.42C317.486 206.453 318.51 210.869 318.538 215.346C318.538 217.433 318.298 219.615 317.123 221.342" fill="#F96B1B"/>
<g opacity="0.2">
<path d="M317.105 221.336C315.606 223.47 312.699 222.763 311.35 221.462C310.001 220.161 309.431 218.266 308.91 216.462C307.71 212.343 306.511 208.02 307.411 203.823C307.624 202.551 308.184 201.362 309.029 200.388C309.455 199.906 310 199.545 310.609 199.342C311.219 199.139 311.872 199.101 312.501 199.231C313.97 199.614 314.899 201.029 315.54 202.42C317.486 206.453 318.51 210.869 318.538 215.346C318.538 217.433 318.298 219.615 317.123 221.342" fill="black"/>
</g>
<path d="M311.5 232.164C308.984 230.979 306.155 230.635 303.43 231.18C301.973 231.426 300.432 231.864 299.455 232.979C298.477 234.094 298.256 236.007 299.413 236.948C300.148 237.447 301.035 237.672 301.919 237.584C304.047 237.584 306.409 237.188 308.106 238.465C309.077 239.196 309.725 240.413 310.882 240.773C311.46 240.901 312.063 240.84 312.603 240.598C313.143 240.356 313.591 239.947 313.88 239.43C314.432 238.363 314.554 237.125 314.221 235.971C314.092 235.169 313.778 234.409 313.306 233.748C312.834 233.088 312.216 232.546 311.5 232.164Z" fill="#F96B1B"/>
<path d="M321.218 224.4C319.587 222.475 319.282 219.663 320.019 217.247C320.839 214.846 322.306 212.717 324.258 211.096C326.472 209.123 329.051 207.602 331.848 206.617C332.93 206.169 334.096 205.965 335.266 206.018C335.847 206.053 336.411 206.23 336.909 206.531C337.407 206.833 337.825 207.251 338.125 207.75C338.929 209.273 338.161 211.12 337.334 212.631C335.871 215.302 334.199 217.854 332.334 220.263C330.841 222.193 329.126 224.094 326.848 224.963C324.57 225.832 322.207 225.731 320.996 224.154" fill="#F96B1B"/>
<path d="M317.219 253.579C317.139 253.262 317.092 252.936 317.081 252.608C317.015 251.907 316.925 251.013 316.824 249.958C316.69 248.654 316.49 247.357 316.224 246.073C315.875 244.507 315.402 242.971 314.809 241.481C314.229 239.993 313.44 238.596 312.465 237.332C311.673 236.301 310.661 235.459 309.503 234.868C308.718 234.478 307.876 234.215 307.009 234.088C306.683 234.076 306.36 234.03 306.044 233.95C306.37 233.911 306.7 233.911 307.027 233.95C307.928 234.02 308.809 234.25 309.629 234.628C310.847 235.207 311.916 236.058 312.753 237.116C313.766 238.4 314.584 239.826 315.181 241.349C315.782 242.86 316.251 244.421 316.584 246.013C316.837 247.314 317.009 248.63 317.099 249.952C317.183 251.079 317.219 251.991 317.231 252.62C317.261 252.939 317.257 253.261 317.219 253.579Z" fill="#263238"/>
<path d="M317.021 251.541C317.007 251.391 317.007 251.241 317.021 251.091C317.021 250.756 317.021 250.324 317.021 249.802C317.021 248.687 317.021 247.068 316.961 245.066C316.865 241.067 316.518 235.551 315.852 229.478C315.187 223.404 314.293 217.955 313.49 214.039C313.298 213.056 313.106 212.175 312.891 211.401C312.675 210.628 312.573 209.957 312.429 209.417C312.285 208.877 312.207 208.494 312.129 208.164C312.081 208.019 312.055 207.867 312.051 207.714C312.117 207.851 312.17 207.993 312.207 208.14L312.579 209.375C312.747 209.909 312.915 210.574 313.112 211.348C313.31 212.121 313.526 212.996 313.712 213.98C314.816 219.084 315.647 224.243 316.2 229.436C316.865 235.515 317.165 241.049 317.189 245.054C317.189 247.056 317.189 248.681 317.123 249.802C317.087 250.324 317.063 250.75 317.039 251.091C317.057 251.241 317.051 251.393 317.021 251.541Z" fill="#263238"/>
<path d="M316.997 240.869C316.961 240.42 316.961 239.969 316.997 239.52C317.051 238.657 317.171 237.404 317.411 235.875C317.711 234.081 318.112 232.306 318.61 230.557C319.197 228.411 319.934 226.31 320.816 224.268C322.359 220.514 324.569 217.071 327.339 214.105C327.823 213.598 328.338 213.122 328.88 212.679C329.114 212.481 329.324 212.283 329.534 212.127L330.133 211.713C330.492 211.443 330.871 211.2 331.267 210.988C329.965 212.019 328.726 213.126 327.555 214.303C324.87 217.3 322.719 220.735 321.194 224.46C320.313 226.485 319.566 228.566 318.958 230.689C318.358 232.643 317.993 234.442 317.699 235.953C317.405 237.464 317.261 238.705 317.159 239.55C317.141 239.993 317.086 240.434 316.997 240.869Z" fill="#263238"/>
<path d="M106.419 0.00197657C106.28 0.0273789 106.14 0.0453907 106 0.0559357L104.8 0.157859C104.139 0.202603 103.481 0.296793 102.834 0.439644C102.444 0.52358 102.019 0.559554 101.587 0.691454C101.155 0.823354 100.688 0.955253 100.202 1.09315C97.837 1.85226 95.61 2.98801 93.6069 4.45659C90.9743 6.42259 88.7829 8.91835 87.1738 11.783C84.7069 16.2278 83.643 21.3151 84.1221 26.376C84.1581 26.9275 84.278 27.4731 84.3559 28.0307C84.4303 28.5912 84.5425 29.1461 84.6917 29.6914C85.2204 31.9785 86.0895 34.1733 87.2697 36.2025C89.7816 40.5935 93.6627 44.0408 98.3193 46.017C100.773 47.0414 103.395 47.6005 106.053 47.6658C108.791 47.7742 111.523 47.3423 114.093 46.3948L114.879 46.095L114.981 46.059L115.077 46.101L126.468 51.7247L126.138 52.0185L122.505 41.1727L122.463 41.0348L122.559 40.9329C125.279 38.1354 127.281 34.7205 128.392 30.9805C129.392 27.563 129.646 23.9705 129.136 20.4465C128.322 14.5728 125.383 9.2015 120.874 5.34992C119.166 3.94999 117.281 2.78085 115.268 1.87256C113.748 1.23836 112.167 0.760267 110.55 0.445641L108.787 0.169851L107.486 0.0919092L106.689 0.0379501C106.598 0.0371369 106.508 0.0270931 106.419 0.0079733C106.509 -0.00265777 106.599 -0.00265777 106.689 0.0079733H107.486L108.799 0.0439445L110.598 0.289758C112.24 0.578171 113.848 1.03835 115.394 1.66272C117.443 2.55499 119.361 3.72071 121.096 5.12808C123.202 6.89579 124.992 9.00824 126.39 11.3753C128.023 14.138 129.1 17.1929 129.562 20.3685C130.095 23.95 129.849 27.6044 128.842 31.0824C127.723 34.8977 125.692 38.3834 122.925 41.2387L122.967 40.9989C124.166 44.4762 125.365 48.1035 126.612 51.8386L126.798 52.3842L126.282 52.1324L114.891 46.5147H115.089L114.285 46.8204C111.657 47.7849 108.863 48.2189 106.065 48.0975C103.35 48.0318 100.67 47.4604 98.1634 46.4127C93.4159 44.3876 89.4629 40.8622 86.91 36.3764C85.7127 34.3209 84.8296 32.098 84.29 29.7814C84.1387 29.2267 84.0284 28.6616 83.9602 28.0906C83.8823 27.5271 83.7564 26.9755 83.7264 26.4119C83.6239 25.3119 83.5959 24.2062 83.6425 23.1024C83.7046 21.0106 84.0248 18.9345 84.5957 16.9211C85.1441 15.0729 85.9046 13.2944 86.862 11.6212C88.5157 8.72376 90.7631 6.20865 93.457 4.24076C95.4882 2.77472 97.7467 1.6526 100.142 0.919282L101.551 0.535571C101.964 0.438285 102.383 0.362244 102.804 0.307746C103.458 0.173767 104.121 0.0935589 104.788 0.0679269L106.017 0.0079733L106.419 0.00197657Z" fill="#263238"/>
<path d="M111.779 20.9141H110.118L106.437 15.9079L106.401 12.5924C106.401 12.5924 103.835 12.4665 104.183 16.7892C104.531 21.112 104.183 20.0208 104.183 20.0208C104.183 20.0208 98.739 20.1047 98.2894 20.5844C97.9656 20.9321 97.8757 26.346 97.8577 29.2778C97.8248 29.9968 98.037 30.7058 98.4596 31.2885C98.8822 31.8712 99.4902 32.2932 100.184 32.4853C100.38 32.5334 100.581 32.5576 100.783 32.5573C102.144 32.5573 109.069 31.3582 109.069 31.3582L111.941 31.3222L111.779 20.9141Z" fill="#F96B1B"/>
<path d="M116.522 19.9488L115.628 31.3102L112.786 31.3462L112.66 20.2246L116.522 19.9488Z" fill="#F96B1B"/>
</svg>
