<svg width="30" height="30" viewBox="0 0 30 30" fill="none" xmlns="http://www.w3.org/2000/svg">
<circle cx="15" cy="15" r="15" fill="#F9A11B"/>
<path d="M15 15.0001C17.3012 15.0001 19.1667 13.1346 19.1667 10.8334C19.1667 8.53223 17.3012 6.66675 15 6.66675C12.6988 6.66675 10.8333 8.53223 10.8333 10.8334C10.8333 13.1346 12.6988 15.0001 15 15.0001Z" stroke="white" stroke-width="2"/>
<path d="M19.1667 16.6667H19.46C20.0692 16.6669 20.6574 16.8896 21.1141 17.2928C21.5708 17.6961 21.8645 18.2522 21.94 18.8567L22.2658 21.4601C22.2951 21.6946 22.2742 21.9327 22.2045 22.1585C22.1348 22.3843 22.0178 22.5927 21.8614 22.7699C21.7049 22.9471 21.5126 23.0889 21.2971 23.1861C21.0817 23.2833 20.848 23.3335 20.6117 23.3334H9.38833C9.15198 23.3335 8.91832 23.2833 8.70287 23.1861C8.48741 23.0889 8.29508 22.9471 8.13864 22.7699C7.9822 22.5927 7.86523 22.3843 7.7955 22.1585C7.72576 21.9327 7.70485 21.6946 7.73416 21.4601L8.05916 18.8567C8.13474 18.2519 8.42867 17.6956 8.88569 17.2923C9.3427 16.889 9.93131 16.6665 10.5408 16.6667H10.8333" stroke="white" stroke-width="2" stroke-linecap="round" stroke-linejoin="round"/>
</svg>
